<svg width="834" height="212" viewBox="0 0 834 212" fill="none" xmlns="http://www.w3.org/2000/svg">
<circle cx="119" cy="105.003" r="67.5" fill="#FFAB04" stroke="#292929" stroke-width="5"/>
<circle cx="50" cy="50" r="50" transform="matrix(-1 0 0 1 169 54.9)" fill="#FFE483"/>
<path d="M121.633 129.9V125.476C126.083 125.242 129.465 124.011 132.079 121.785C134.693 119.558 136 116.599 136 113.171C136 109.48 134.943 106.755 132.608 105.027C130.244 103.064 126.861 101.57 121.883 100.603H121.633V89.2555C125.025 89.7535 127.908 90.7203 130.772 92.7125L134.962 87.2926C130.772 84.568 126.323 83.1031 121.624 82.8687V79.9H117.703V82.859C113.782 83.0934 110.37 84.3238 107.756 86.5504C105.142 88.7769 103.836 91.7359 103.836 95.1637C103.836 98.5914 104.893 101.316 107.228 103.045C109.313 104.773 112.975 106.238 117.674 107.234V118.806C114.003 118.308 110.341 116.58 106.699 113.621L102 118.806C106.699 122.761 111.946 124.959 117.693 125.457V129.9H121.633ZM121.883 108.455C124.497 109.187 126.073 109.92 127.111 110.681C127.889 111.677 128.418 112.644 128.418 114.138C128.418 115.632 127.889 116.599 126.582 117.595C125.275 118.591 123.69 119.06 121.883 119.324V108.455ZM112.744 97.8687C111.966 97.1363 111.437 95.9059 111.437 94.6754C111.437 93.2105 111.966 92.2144 112.994 91.2184C114.301 90.2223 115.608 89.7535 117.693 89.4898V100.095C115.079 99.3336 113.522 98.6012 112.744 97.8687Z" fill="#292929"/>
<path d="M176.66 158.688C174.451 159.239 170.361 160.724 167.675 161.744C165.645 162.514 164.518 163.785 163.032 164.759C161.281 165.906 158.219 167.396 156.032 168.654C155.042 169.223 154.034 169.628 153.661 170.276C152.469 172.35 159.499 170.838 160.147 170.515C161.168 169.263 162.281 168.337 163.021 167.643C163.394 167.316 163.761 167.04 164.14 166.756" stroke="#00B9AA" stroke-width="10" stroke-linecap="round"/>
<path d="M146.008 158.606C144.922 158.606 141.292 159.024 135.643 159.764C134.246 159.948 133.033 159.872 133.255 159.872C137.379 159.872 139.557 159.555 141.748 158.978C144.527 158.245 147.692 157.029 151.459 156.234C157.572 154.945 162.154 153.756 166.039 152.647C168.553 151.931 170.296 150.064 171.822 149.529C174.013 148.76 169.706 152.901 167.944 154.694C166.402 156.264 165.088 157.862 164.538 158.758C164.056 159.542 166.655 159.555 167.867 159.451C170.897 159.19 173.577 157.13 176.795 154.718C178.143 153.707 177.352 150.742 176.932 150.129C174.952 147.249 172.024 156.257 169.403 159.861C167.456 162.54 165.697 164.19 164.177 165.514C162.584 166.901 159.749 167.046 157.376 167.784C155.172 168.469 152.824 169.68 149.786 170.685C149.043 170.931 148.45 171.263 147.84 171.529C147.229 171.795 146.628 172.004 147.521 171.119C153.244 165.447 157.401 164 162.03 161.358C162.913 160.854 163.371 160.512 163.319 160.246C163.266 159.98 162.664 159.771 161.753 159.924C160.842 160.078 159.639 160.6 150.781 165.571C141.922 170.541 125.445 179.944 116.535 184.892C105.227 191.173 102.159 192.057 101.124 192.217C97.9094 192.713 109.787 188.27 117.029 184.65C122.489 181.921 131.969 178 137.403 175.64C144.04 172.757 145.76 171.906 146.249 171.587C146.723 171.279 138.183 175.353 126.649 180.311C120.795 182.828 117.594 183.61 113.303 185.082C101.251 189.216 94.4212 190.36 90.3137 191.739C89.2927 192.081 88.1852 192.269 87.5747 192.323C87.516 192.328 88.167 192.063 95.0317 188.873C101.897 185.684 115.006 179.52 122.181 176.083C133.118 170.844 138.34 167.692 140.233 166.104C145.777 161.456 118.301 164.516 120.297 164.201C123.383 163.714 125.955 163.25 126.868 163.353C127.718 163.449 122.719 166.919 113.824 172.126C108.635 175.163 101.681 178.481 97.6687 180.414C90.9981 183.627 88.1888 184.459 87.0845 184.883C85.5598 185.468 90.8422 183.411 96.9908 180.739C102.13 178.505 111.559 174.828 116.933 172.577C125.639 168.93 128.864 166.742 130.516 165.048C130.757 164.802 129.862 164.52 129.131 164.412C127.576 164.183 119.114 165.871 107.152 168.298C99.6465 169.821 94.2828 170.737 89.2294 171.741C88.0833 171.969 86.9861 171.903 86.7893 171.798C86.2458 171.51 96.4769 170.016 110.616 168.116C116.317 167.35 119.103 167.47 119.927 167.47C123.129 167.47 108.278 169.256 101.507 170.736C93.5977 172.464 91.5857 172.428 90.4358 172.745C89.7874 172.923 88.9251 172.852 89.5137 172.382C94.2912 168.566 102.702 166.755 108.574 164.732C113.027 163.197 114.78 162.091 115.389 161.408C115.949 160.779 111.781 160.189 107.161 160.136C105.788 160.121 106.39 159.98 107.241 159.926C110.767 159.703 114.394 159.138 119.93 158.345C121.467 158.124 122.675 157.972 123.588 157.764C123.885 157.696 123.418 157.137 122.932 156.921C122.445 156.706 121.844 156.706 121.414 156.445C119.517 155.293 119.045 152.812 117.707 150.909C115.953 148.415 112.011 147.956 108.606 147.262C101.969 145.91 98.168 148.468 93.8436 149.421C89.4402 150.392 83.5965 151.318 77.4607 152.584C63.4211 155.482 60.3726 155.332 53.5807 155.283C52.0919 155.272 51.5014 154.813 51.0112 154.443C49.1907 153.067 49.1834 150.596 48.6968 148.798C48.2378 147.101 47.7255 145.841 47.0002 145.208C46.6162 144.872 45.7938 144.992 45.4822 145.253C44.1112 146.403 46.7487 148.361 46.8125 153.467C46.8429 155.904 45.2982 158.169 44.7478 160.497C44.5038 161.53 44.5656 162.506 44.3232 163.4C44.0539 164.394 43.9569 171.833 44.017 182.489C44.0406 186.671 44.5619 187.517 45.1669 188.202C46.3958 189.594 49.2927 188.473 63.3394 188.47C67.9249 188.469 70.5485 189.625 72.7427 190.789C74.5554 191.75 76.9924 191.632 79.3013 192.215C81.7247 192.826 83.9173 193.215 86.5287 193.483C89.0247 193.739 91.6877 193.956 105.195 193.907C110.246 193.889 111.865 192.905 112.353 192.536C115.732 189.984 99.6113 192.582 97.8436 193.69C96.1003 194.783 94.0203 195.223 92.6153 195.804C90.7739 196.565 97.2787 195.014 101.643 193.334C107.888 190.931 113.286 188.808 117.086 187.05C119.031 186.15 120.969 184.572 123.039 183.357C124.866 182.284 126.925 181.824 129.716 180.772C133.321 179.413 136.036 178.659 138.106 178.499C140.288 178.33 132.29 178.443 130.403 179.233C128.467 180.044 127.187 182.236 126.145 183.403C124.68 185.042 131.174 182.249 133.305 181.509C136.218 180.499 137.254 177.715 138.411 176.025C139.586 174.308 141.263 172.339 142.602 170.011C143.738 168.037 144.543 165.792 145.7 163.994C145.981 163.558 146.365 163.152 146.611 163.198C148.506 163.551 146.861 166.932 146.072 169.36C145.668 170.602 145.523 171.792 145.341 172.844C145.25 173.371 145.279 173.897 145.941 173.696C150.694 172.251 151.949 168.325 154.079 166.212C156.317 163.992 158.393 162.202 160.458 161.089C162.208 160.146 165.063 159.245 167.807 158.345C169.894 157.66 172.359 157.13 174.732 156.445C176.707 155.874 178.318 155.756 178.989 155.704C179.08 155.697 178.577 155.547 178.269 155.18C176.439 152.998 176.142 149.855 174.202 147.954C173.403 147.172 172.979 146.161 172.919 145.261C172.823 143.834 169.597 150.14 167.215 152.584C165.23 154.621 161.702 158.897 159.257 161.449C157.853 162.914 155.382 166.179 153.545 168.835C151.998 171.072 150.994 172.738 149.718 174.481C148.361 176.336 146.868 178.12 144.499 179.39C142.931 180.23 141.882 181.188 140.853 181.242C140.302 181.271 139.703 180.982 139.273 180.666C138.843 180.349 138.602 179.931 138.418 179.507C138.234 179.083 138.114 178.665 138.719 177.285" stroke="#00B9AA" stroke-width="10" stroke-linecap="round"/>
<path d="M171.374 161.748C171.098 161.932 170.823 162.116 170.497 162.348C170.172 162.58 169.805 162.856 168.87 162.861" stroke="#00B9AA" stroke-width="10" stroke-linecap="round"/>
<path d="M137.707 184.564C134.766 185.665 127.891 188.27 122.563 190.398C120.347 191.283 118.887 192.07 117.401 192.908C115.841 193.788 113.879 194.113 111.101 195.363C108.578 196.499 106.923 197.268 105.437 197.916C103.951 198.565 102.471 199.121 100.663 199.679C94.7626 201.499 84.6642 199.872 83.1785 199.035C81.7631 198.237 80.4907 197.273 79.2359 196.069C78.0005 194.883 76.1335 194.213 74.5531 193.747C73.8214 193.531 67.6501 193.467 58.702 193.421C54.1442 193.398 52.1106 193.005 50.028 192.68C49.0689 192.53 47.4975 192.632 46.6934 192.908C45.8893 193.183 45.8893 193.734 45.9811 193.834C46.0729 193.935 46.2565 193.567 46.4889 193.194C46.7212 192.822 46.9966 192.454 47.2804 192.076" stroke="#00B9AA" stroke-width="10" stroke-linecap="round"/>
<path d="M65.9222 196.249C67.8532 196.249 71.9433 196.433 74.3987 196.574C76.4206 196.689 78.6154 197.635 80.5686 198.15C82.9078 198.766 85.1984 198.475 87.0626 198.798C88.7615 199.092 90.3069 200.417 91.008 201.809C92.4066 204.584 99.4886 202.376 101.205 201.816C102.705 201.326 104.035 200.707 105.426 200.1C106.82 199.313 108.114 198.57 109.877 198.244C110.343 198.197 110.802 198.197 111.553 197.641" stroke="#00B9AA" stroke-width="10" stroke-linecap="round"/>
<path d="M189.513 153.945C186.239 154.966 181.022 157.027 179.4 157.613C179.092 157.724 178.75 157.785 178.813 157.684C180.175 155.495 186.875 154.776 189.405 153.913C189.797 153.779 190.258 153.537 190.333 153.568C191.476 154.038 188.146 155.175 187.15 156C185.756 157.153 183.895 157.781 182.726 158.333C182.143 158.609 181.356 159.427 180.6 160.114C179.038 161.536 187.768 154.307 190.263 152.508C190.854 152.083 191.225 151.545 191.501 151.441C192.44 151.087 189.451 152.978 188.111 154.113C187.801 154.354 187.529 154.558 187.287 154.765C187.045 154.972 186.842 155.175 186.838 154.974" stroke="#00B9AA" stroke-width="2" stroke-linecap="round"/>
<path d="M86.1084 175.437C84.8174 174.608 82.5915 173.123 80.2292 172.519C78.7248 172.134 77.6723 171.45 77.2076 171.082C76.9777 170.899 77.2939 170.346 77.5721 170.063C78.9386 168.676 82.6583 167.931 85.3112 166.862C88.4147 165.612 91.7566 163.941 94.1647 162.829C99.5187 160.358 105.006 159.495 108.173 158.468C109.124 158.159 109.756 157.633 109.943 157.17C110.923 154.753 102.541 157.163 100.582 157.86C99.8514 158.12 98.9128 158.279 97.9863 158.234C97.5871 158.215 97.427 157.73 97.3783 157.312C97.3296 156.893 97.4215 156.434 97.6524 156.06C98.6077 154.512 101.857 154.57 103.956 153.97C106.022 153.38 107.616 151.698 109.196 150.725C109.92 150.279 110.315 148.924 110.499 147.208C110.558 146.656 111.049 146.868 111.376 147.1C112.662 148.014 113.832 149.278 115.779 150.346C117.509 151.295 119.58 152.155 120.839 152.437C122.022 152.702 118.946 150.218 117.74 148.686C116.992 147.737 116.069 147.244 115.329 147.151C113.785 146.956 110.894 149.272 107.681 150.393C105.601 151.12 103.097 152.617 100.173 153.914C97.2585 155.208 94.6474 156.05 92.3882 156.974C88.3322 158.632 83.0728 159.297 78.2607 159.714C71.2073 160.326 69.1471 159.211 65.6719 157.914C62.8244 156.852 61.6292 155.688 60.053 153.974C58.394 152.17 58.3794 150.307 58.2388 149.613C57.9656 148.263 60.6887 148.265 64.2529 148.216C65.4267 148.2 66.1644 148.632 66.4454 149.048C67.7101 150.92 60.4439 150.953 57.8285 150.307C55.1225 149.639 53.9332 147.619 52.4933 146.505C52.1531 146.242 51.8909 145.95 51.8867 145.67C51.8826 145.391 52.158 145.115 52.4835 144.927C53.7933 144.172 56.5041 144.275 58.4656 144.921C59.9831 145.42 60.6887 147.33 61.9436 148.444C63.2632 149.616 64.8623 150.023 68.8883 150.164C70.1555 150.208 71.3535 150.396 71.6415 150.396C76.4628 150.396 65.1572 149.751 62.8381 149.193C60.7736 148.696 59.036 147.987 56.9019 147.292C54.5522 146.528 52.6366 145.299 49.9015 144.926C49.2709 144.84 48.9249 144.375 48.7816 145.058C48.2831 147.435 49.1002 150.293 50.298 153.43C52.3989 158.933 54.7567 163.092 55.3591 164.806C56.4576 167.932 55.4134 173.84 54.3477 177.096C53.4079 179.967 52.2637 182.655 51.0548 183.924C48.2854 186.83 48.2683 170.752 49.4675 167.696C50.6689 164.633 55.4968 172.46 57.0717 173.993C59.5425 176.399 61.4288 178.392 62.5473 180.208C63.6699 182.03 65.6024 183.679 67.4137 185.172C67.8032 185.492 68.2011 185.727 68.5739 185.823C68.9468 185.919 69.314 185.827 69.7787 185.504C72.8937 183.34 73.955 177.68 74.2833 172.167C74.4247 169.794 73.6823 168.393 73.2205 167.606C71.9394 165.426 69.1471 164.219 66.9212 163.568C62.8194 162.368 60.4327 164.302 58.6145 165.417C57.9161 165.845 57.6365 166.623 57.5892 167.363C57.4846 168.999 59.3921 170.696 61.7071 173.757C63.3374 175.912 66.0587 178.209 68.6171 179.007C69.1965 179.188 69.865 179.055 69.8747 178.917C70.0384 176.602 63.2262 179.322 60.5635 180.951C58.8274 182.013 58.563 184.333 58.6089 185.401C58.6664 186.738 60.0432 181.937 62.4027 175.14C63.306 172.537 63.9385 171.086 64.5423 169.692C64.6869 169.358 65.1405 169.227 65.5592 169.224C67.3643 169.212 69.3085 170.335 71.9086 171.168C74.2522 171.919 76.1754 172.004 78.3553 173.206C80.6936 174.495 84.1329 176.261 86.7511 177.567C88.7249 178.552 92.0237 178.498 93.6208 179.144C96.5016 180.308 87.2325 181.275 82.5553 182.805C80.3394 183.53 78.6962 183.968 77.3537 184.338C73.8398 185.307 90.9358 184.989 89.9188 185.174C88.7237 185.392 86.6788 185.454 84.7756 185.316C84.2334 185.277 84.617 184.903 85.0817 184.761C85.5464 184.619 86.0973 184.619 86.5647 184.757C88.5147 185.332 89.5362 188.314 90.4642 190.871C90.7798 191.741 90.8384 192.774 90.6088 193.748C90.5164 194.14 89.9202 194.079 86.5619 192.702C83.2036 191.325 76.96 188.57 71.7695 186.049C66.579 183.529 62.6308 181.325 58.3474 178.262C54.0639 175.198 49.5648 171.342 47.1094 169.126C43.5369 165.901 42.4309 164.592 40.6724 161.957C37.4327 157.102 36.0314 154.397 35.4249 152.628C34.9049 151.111 34.6347 141.949 34.2201 136.719C34.1727 136.121 32.9681 137.038 32.5507 137.226C32.3986 137.294 32.4088 136.679 32.5924 136.305C32.7761 135.931 33.1434 135.655 33.3326 135.238C33.5218 134.821 33.5218 134.27 33.3381 134.124C31.9497 134.996 30.2831 136.112 27.9696 136.668C26.9526 136.763 25.3917 136.763 24.34 136.763" stroke="#00B9AA" stroke-width="10" stroke-linecap="round"/>
<path d="M34.3564 133.424C33.6191 133.424 27.3615 132.322 23.0489 131.478C22.5811 131.386 22.2142 131.293 22.53 131.245C22.8458 131.198 23.8558 131.198 24.1465 131.427C28.6351 134.971 8.75589 132.865 9.35688 133.603C10.9166 135.52 10.6117 137.681 10.7981 140.416C10.9233 142.252 11.8193 144.169 11.5897 146.117C11.5077 146.813 10.9011 146.779 10.5269 146.641C10.1526 146.504 9.87718 146.228 9.68937 145.903C9.31603 145.256 9.31514 143.179 9.45287 140.812C9.4951 140.087 9.86605 140.374 10.2375 140.746C12.1517 142.66 12.8376 146.022 13.7628 149.179C14.5402 151.832 15.4308 154.002 16.3142 155.908C17.0997 157.603 18.1241 159.105 17.9432 161.425C17.9069 161.892 17.1169 161.804 16.6035 161.712C14.8029 161.39 14.0507 159.584 13.4901 157.961C12.9456 156.386 12.7486 154.67 11.8234 153.092C11.238 152.094 10.8009 151.142 10.7063 150.631C10.4505 149.251 14.4959 152.7 16.2196 155.118C17.8495 157.404 19.877 161.225 21.2292 163.468C22.0982 164.909 22.7595 166.617 23.5483 168.429C23.9224 169.288 24.6153 169.87 24.8491 170.333C24.9357 170.505 24.4401 170.613 24.0672 170.614C22.5992 170.62 21.3795 169.227 20.7242 167.931C20.3801 167.25 20.1691 166.537 19.9354 166.165C19.3034 165.161 22.5703 168.098 24.0561 169.821C25.2362 171.19 26.282 172.555 27.1195 174.272C27.8848 175.84 28.6971 176.918 28.7917 177.52C28.8307 177.768 28.3354 177.847 27.9625 177.848C26.407 177.854 25.1802 176.278 24.1563 175.255C24.0233 175.122 24.518 174.976 24.8908 175.02C26.5186 175.214 28.4077 176.823 30.1773 178.122C31.6151 179.178 32.4978 180.902 33.5175 182.388C34.041 183.151 34.6318 183.782 34.8656 184.337C34.9753 184.597 34.4566 184.892 34.1296 184.85C33.4074 184.758 32.7844 183.604 32.3183 183.138C31.071 181.89 34.8127 185.727 36.2985 186.61C36.6761 186.835 37.0386 187.118 36.9982 187.168C36.0528 188.341 34.1783 185.181 32.9694 183.79C32.6637 183.438 32.4143 183.05 32.456 182.815C32.4978 182.58 32.865 182.488 33.2379 182.578C34.8934 182.98 36.2039 184.519 37.4128 185.774C38.6373 187.045 39.0836 188.234 39.4092 188.467C40.7121 189.403 38.1627 182.699 37.9275 179.018C37.7994 177.011 37.3279 174.247 36.816 171.69C36.424 169.732 35.3831 166.829 33.7665 161.432C30.9565 152.052 29.9074 145.394 29.6737 144.697C29.2544 143.446 31.6631 147.141 34.2534 152.046C35.9048 155.173 37.506 157.808 40.28 162.248C42.7305 166.169 42.7925 168.103 43.4895 170.79C43.7754 171.891 43.8164 172.836 43.5869 173.577C43.4793 173.925 42.8982 173.952 42.2945 173.724C40.8459 173.176 36.343 167.602 30.3164 160.185C26.1601 155.069 23.878 150.496 23.0447 148.503C22.2453 146.59 21.5631 144.286 21.0025 142.38C20.7742 141.604 20.4474 140.939 19.8464 140.476C19.5487 140.246 19.1536 140.196 19.0562 140.424C18.3242 142.139 21.2737 143.435 23.54 147.868C27.2948 155.214 28.4133 159.005 29.8531 161.656C30.7826 163.368 31.6631 164.948 32.3141 166.574C32.4087 166.993 32.4087 167.452 32.3169 167.872C32.2251 168.292 32.0415 168.66 31.574 169.038" stroke="#00B9AA" stroke-width="10" stroke-linecap="round"/>
<path d="M89.8506 157.853C89.667 157.853 89.4833 157.853 83.3747 158.22C77.266 158.587 65.2379 159.322 53.6799 160.079" stroke="#00B9AA" stroke-width="10" stroke-linecap="round"/>
<path d="M163.173 146.742C162.489 146.81 160.172 147.899 158.102 149.14C156.939 149.837 155.974 150.648 154.912 151.302C153.048 152.447 150.352 153.258 148.466 153.84C148.025 153.976 147.677 153.945 147.808 153.809C149.209 152.353 152.044 151.619 156.231 149.289C157.92 148.348 159.325 147.228 160.459 146.334C160.709 146.137 160.905 145.923 160.942 145.683C160.979 145.442 160.843 145.17 160.604 144.996C159.546 144.229 157.831 144.82 155.911 145.334C154.289 145.768 152.141 146.259 148.286 147.69C141.252 150.302 136.631 152.776 135.844 153.357C134.397 154.426 133.614 155.587 132.72 156.924C132.512 157.234 132.31 157.439 132.374 157.51C132.647 157.809 133.4 157.307 133.71 157C133.835 156.876 133.544 156.624 133.643 156.417C134.473 154.679 138.94 154.365 140.434 153.603C142.789 152.403 134.511 154.698 132.723 154.939C132.312 154.994 131.902 154.974 131.828 154.838C131.295 153.861 133.808 153.603 136.472 153.022C140.499 152.143 144.502 151.685 146.763 151.034C148.311 150.588 152.369 149.77 157.819 148.296C162.285 147.089 165.086 145.989 167.074 145.032C169.28 143.971 170.095 141.882 170.581 140.641C170.962 139.667 168.461 139.816 163.672 139.814C161.658 139.813 160.777 140.911 159.508 141.527C158.383 142.073 157.345 142.077 157.103 142.078C155.85 142.084 160.279 141.256 163.946 140.538C167.475 139.847 169.066 139.063 170.233 138.65C171.011 138.375 171.744 138.1 172.224 137.964C172.412 137.911 172.297 137.556 172.5 137.416C173.07 137.023 173.939 137.344 174.521 137.617C176.041 138.33 176.75 139.672 177.574 140.6C178.441 141.576 179.15 142.623 180.215 143.276C181.343 143.968 182.648 144.886 183.781 145.778C185.475 147.113 186.698 148.457 187.143 148.695C187.358 148.81 187.385 149.138 187.284 149.346C186.292 149.965 184.381 150.92 183.103 151.85C182.862 152.023 182.59 152.159 182.105 152.299" stroke="#00B9AA" stroke-width="10" stroke-linecap="round"/>
<g clip-path="url(#clip0_42_42)">
<path d="M94.6169 210.582C88.2339 210.582 81.9162 208.233 75.7833 205.956C69.0222 203.443 62.0417 200.848 55.0915 201.461L38.1617 202.963V137.032L47.3373 136.217C53.0965 135.715 57.9146 137.952 62.5741 140.123C66.975 142.172 71.139 144.13 75.9224 143.717L106.487 138.171C117.408 136.315 123.419 142.657 127.064 148.431L160.51 132.884C173.048 127.255 187.118 132.905 195.568 146.932C197.765 150.578 196.541 155.42 192.844 157.728C188.513 160.43 184.197 163.133 179.929 165.811C142.694 189.139 110.54 209.285 96.801 210.487C96.0729 210.552 95.3449 210.582 94.6169 210.582ZM57.2322 197.021C64.2171 197.021 70.8543 199.488 77.2959 201.881C83.9678 204.363 90.2703 206.701 96.4185 206.158C109.117 205.047 142.392 184.199 177.618 162.125C181.891 159.45 186.207 156.742 190.541 154.038C192.236 152.982 192.821 150.798 191.843 149.172C184.582 137.124 172.711 132.16 162.316 136.837L125.312 154.038L124.321 152.308C121.018 146.553 116.413 140.886 107.241 142.452L76.4874 148.023C70.3479 148.529 65.4602 146.258 60.7399 144.061C56.4107 142.042 52.3097 140.131 47.7241 140.547L42.5105 141.009V198.212L54.709 197.13C55.5544 197.056 56.3955 197.021 57.2322 197.021Z" fill="#292929"/>
<path d="M86.0432 178.498C85.0283 178.498 84.1199 177.786 83.9156 176.751C83.6809 175.573 84.4437 174.43 85.6216 174.193C97.7267 171.774 111.338 166.237 127.179 157.287L124.323 152.308C123.726 151.267 124.086 149.937 125.125 149.342C126.166 148.748 127.496 149.107 128.092 150.144L132.032 157.013C132.627 158.054 132.269 159.382 131.232 159.978C114.165 169.803 99.5262 175.847 86.4714 178.455C86.3279 178.485 86.1845 178.498 86.0432 178.498Z" fill="#292929"/>
<path d="M34.8605 210.582H8.75515C4.53682 210.582 1.10522 207.151 1.10522 202.933L1.10522 132.762C1.10522 128.546 4.53682 125.112 8.75515 125.112H34.8605C39.0788 125.112 42.5104 128.544 42.5104 132.762V202.933C42.5083 207.151 39.0767 210.582 34.8605 210.582ZM8.75515 129.461C6.93394 129.461 5.45177 130.943 5.45177 132.764L5.45177 202.933C5.45177 204.754 6.93394 206.236 8.75515 206.236H34.8605C36.6817 206.236 38.1639 204.754 38.1639 202.933V132.762C38.1639 130.941 36.6817 129.458 34.8605 129.458L8.75515 129.461Z" fill="#292929"/>
<path d="M3.37903 139.003L4.1987 142.95L4.8521 145.791L5.82639 149.262L7.12155 153.364L8.25045 156.36L9.37935 159.356L11.3046 163.136L13.2299 166.917L15.9515 171.482L21.7041 179.662L27.9204 186.415L34.7669 192.848C34.7669 192.848 39.4179 196.283 42.3981 198.484L45.4173 200.517L47.1647 201.611L48.912 202.705" stroke="#292929" stroke-width="3.5"/>
</g>
<mask id="path-19-outside-1_42_42" maskUnits="userSpaceOnUse" x="200" y="11" width="628" height="173" fill="black">
<rect fill="white" x="200" y="11" width="628" height="173"/>
<path d="M248.1 148.62C243.9 148.62 240.3 147.6 237.3 145.56C234.42 143.4 232.02 140.22 230.1 136.02L204.36 77.16C202.92 73.56 202.44 70.2 202.92 67.08C203.4 63.96 204.9 61.5 207.42 59.7C210.06 57.78 213.66 56.82 218.22 56.82C222.06 56.82 225.12 57.72 227.4 59.52C229.8 61.2 231.96 64.56 233.88 69.6L252.06 116.4H245.94L265.02 69.42C266.94 64.5 269.1 61.2 271.5 59.52C273.9 57.72 277.2 56.82 281.4 56.82C285 56.82 287.88 57.78 290.04 59.7C292.32 61.5 293.7 63.96 294.18 67.08C294.66 70.2 294.06 73.56 292.38 77.16L266.1 136.2C264.3 140.4 261.9 143.52 258.9 145.56C256.02 147.6 252.42 148.62 248.1 148.62ZM352.373 148.98C341.573 148.98 332.213 147.12 324.293 143.4C316.493 139.56 310.493 134.16 306.293 127.2C302.093 120.24 299.993 112.02 299.993 102.54C299.993 93.42 301.973 85.44 305.933 78.6C310.013 71.64 315.533 66.24 322.493 62.4C329.573 58.44 337.613 56.46 346.613 56.46C353.213 56.46 359.213 57.54 364.613 59.7C370.013 61.74 374.633 64.8 378.473 68.88C382.313 72.84 385.193 77.64 387.113 83.28C389.153 88.92 390.173 95.22 390.173 102.18C390.173 104.58 389.513 106.38 388.193 107.58C386.873 108.66 384.773 109.2 381.893 109.2H326.813V94.08H366.773L363.893 96.42C363.893 91.98 363.293 88.38 362.093 85.62C360.893 82.86 359.093 80.76 356.693 79.32C354.413 77.88 351.533 77.16 348.053 77.16C344.333 77.16 341.093 78.06 338.333 79.86C335.693 81.54 333.653 84.06 332.213 87.42C330.773 90.78 330.053 94.98 330.053 100.02V101.64C330.053 110.16 331.913 116.28 335.633 120C339.473 123.6 345.353 125.4 353.273 125.4C355.913 125.4 358.913 125.1 362.273 124.5C365.753 123.78 369.053 122.82 372.173 121.62C375.293 120.42 377.993 120.24 380.273 121.08C382.553 121.8 384.293 123.12 385.493 125.04C386.813 126.84 387.533 128.94 387.653 131.34C387.773 133.62 387.233 135.9 386.033 138.18C384.833 140.34 382.853 142.02 380.093 143.22C375.893 145.14 371.393 146.58 366.593 147.54C361.913 148.5 357.173 148.98 352.373 148.98ZM420.357 148.62C415.077 148.62 410.997 147.24 408.117 144.48C405.357 141.72 403.977 137.7 403.977 132.42V72.84C403.977 67.68 405.297 63.72 407.937 60.96C410.697 58.2 414.597 56.82 419.637 56.82C424.677 56.82 428.517 58.2 431.157 60.96C433.797 63.72 435.117 67.68 435.117 72.84V80.22H433.317C434.517 73.02 437.577 67.32 442.497 63.12C447.537 58.92 453.777 56.7 461.217 56.46C464.697 56.34 467.277 57.24 468.957 59.16C470.757 60.96 471.717 64.38 471.837 69.42C471.837 73.74 470.937 77.16 469.137 79.68C467.337 82.2 463.917 83.7 458.877 84.18L454.737 84.54C448.377 85.14 443.757 86.94 440.877 89.94C437.997 92.82 436.557 97.14 436.557 102.9V132.42C436.557 137.7 435.177 141.72 432.417 144.48C429.657 147.24 425.637 148.62 420.357 148.62ZM524.362 181.38C517.762 181.38 511.582 180.9 505.822 179.94C500.062 179.1 495.082 177.84 490.882 176.16C487.402 174.96 484.942 173.22 483.502 170.94C482.062 168.66 481.402 166.26 481.522 163.74C481.642 161.22 482.302 158.94 483.502 156.9C484.822 154.86 486.562 153.36 488.722 152.4C490.882 151.56 493.282 151.62 495.922 152.58C501.202 154.74 506.002 156.12 510.322 156.72C514.642 157.44 518.302 157.8 521.302 157.8C528.622 157.8 534.082 156.24 537.682 153.12C541.402 150.12 543.262 145.38 543.262 138.9V127.56H544.702C542.902 132.6 539.242 136.74 533.722 139.98C528.202 143.1 522.202 144.66 515.722 144.66C507.802 144.66 500.902 142.86 495.022 139.26C489.142 135.54 484.522 130.38 481.162 123.78C477.922 117.18 476.302 109.44 476.302 100.56C476.302 93.84 477.262 87.78 479.182 82.38C481.102 76.98 483.742 72.36 487.102 68.52C490.582 64.68 494.722 61.74 499.522 59.7C504.442 57.54 509.842 56.46 515.722 56.46C522.442 56.46 528.442 58.02 533.722 61.14C539.122 64.26 542.722 68.34 544.522 73.38L542.722 80.76V72.84C542.722 67.68 544.102 63.72 546.862 60.96C549.742 58.2 553.702 56.82 558.742 56.82C563.782 56.82 567.622 58.2 570.262 60.96C573.022 63.72 574.402 67.68 574.402 72.84V135.12C574.402 150.48 570.082 162 561.442 169.68C552.802 177.48 540.442 181.38 524.362 181.38ZM525.622 121.08C529.222 121.08 532.282 120.3 534.802 118.74C537.322 117.06 539.302 114.72 540.742 111.72C542.182 108.6 542.902 104.88 542.902 100.56C542.902 94.08 541.342 89.04 538.222 85.44C535.102 81.84 530.902 80.04 525.622 80.04C522.262 80.04 519.262 80.88 516.622 82.56C513.982 84.12 511.942 86.46 510.502 89.58C509.182 92.58 508.522 96.24 508.522 100.56C508.522 107.04 510.082 112.08 513.202 115.68C516.322 119.28 520.462 121.08 525.622 121.08ZM608.958 148.62C603.918 148.62 600.018 147.12 597.258 144.12C594.498 141.12 593.118 136.8 593.118 131.16V74.28C593.118 68.64 594.498 64.32 597.258 61.32C600.018 58.32 603.918 56.82 608.958 56.82C614.118 56.82 618.078 58.32 620.838 61.32C623.718 64.32 625.158 68.64 625.158 74.28V131.16C625.158 136.8 623.778 141.12 621.018 144.12C618.258 147.12 614.238 148.62 608.958 148.62ZM608.958 44.04C603.318 44.04 598.938 42.72 595.818 40.08C592.818 37.44 591.318 33.6 591.318 28.56C591.318 23.64 592.818 19.86 595.818 17.22C598.938 14.58 603.318 13.26 608.958 13.26C614.838 13.26 619.278 14.58 622.278 17.22C625.278 19.86 626.778 23.64 626.778 28.56C626.778 33.6 625.278 37.44 622.278 40.08C619.278 42.72 614.838 44.04 608.958 44.04ZM682.983 148.62C678.783 148.62 675.183 147.6 672.183 145.56C669.303 143.4 666.903 140.22 664.983 136.02L639.243 77.16C637.803 73.56 637.323 70.2 637.803 67.08C638.283 63.96 639.783 61.5 642.303 59.7C644.943 57.78 648.543 56.82 653.103 56.82C656.943 56.82 660.003 57.72 662.283 59.52C664.683 61.2 666.843 64.56 668.763 69.6L686.943 116.4H680.823L699.903 69.42C701.823 64.5 703.983 61.2 706.383 59.52C708.783 57.72 712.083 56.82 716.283 56.82C719.883 56.82 722.763 57.78 724.923 59.7C727.203 61.5 728.583 63.96 729.063 67.08C729.543 70.2 728.943 73.56 727.263 77.16L700.983 136.2C699.183 140.4 696.783 143.52 693.783 145.56C690.903 147.6 687.303 148.62 682.983 148.62ZM787.256 148.98C776.456 148.98 767.096 147.12 759.176 143.4C751.376 139.56 745.376 134.16 741.176 127.2C736.976 120.24 734.876 112.02 734.876 102.54C734.876 93.42 736.856 85.44 740.816 78.6C744.896 71.64 750.416 66.24 757.376 62.4C764.456 58.44 772.496 56.46 781.496 56.46C788.096 56.46 794.096 57.54 799.496 59.7C804.896 61.74 809.516 64.8 813.356 68.88C817.196 72.84 820.076 77.64 821.996 83.28C824.036 88.92 825.056 95.22 825.056 102.18C825.056 104.58 824.396 106.38 823.076 107.58C821.756 108.66 819.656 109.2 816.776 109.2H761.696V94.08H801.656L798.776 96.42C798.776 91.98 798.176 88.38 796.976 85.62C795.776 82.86 793.976 80.76 791.576 79.32C789.296 77.88 786.416 77.16 782.936 77.16C779.216 77.16 775.976 78.06 773.216 79.86C770.576 81.54 768.536 84.06 767.096 87.42C765.656 90.78 764.936 94.98 764.936 100.02V101.64C764.936 110.16 766.796 116.28 770.516 120C774.356 123.6 780.236 125.4 788.156 125.4C790.796 125.4 793.796 125.1 797.156 124.5C800.636 123.78 803.936 122.82 807.056 121.62C810.176 120.42 812.876 120.24 815.156 121.08C817.436 121.8 819.176 123.12 820.376 125.04C821.696 126.84 822.416 128.94 822.536 131.34C822.656 133.62 822.116 135.9 820.916 138.18C819.716 140.34 817.736 142.02 814.976 143.22C810.776 145.14 806.276 146.58 801.476 147.54C796.796 148.5 792.056 148.98 787.256 148.98Z"/>
</mask>
<path d="M248.1 148.62C243.9 148.62 240.3 147.6 237.3 145.56C234.42 143.4 232.02 140.22 230.1 136.02L204.36 77.16C202.92 73.56 202.44 70.2 202.92 67.08C203.4 63.96 204.9 61.5 207.42 59.7C210.06 57.78 213.66 56.82 218.22 56.82C222.06 56.82 225.12 57.72 227.4 59.52C229.8 61.2 231.96 64.56 233.88 69.6L252.06 116.4H245.94L265.02 69.42C266.94 64.5 269.1 61.2 271.5 59.52C273.9 57.72 277.2 56.82 281.4 56.82C285 56.82 287.88 57.78 290.04 59.7C292.32 61.5 293.7 63.96 294.18 67.08C294.66 70.2 294.06 73.56 292.38 77.16L266.1 136.2C264.3 140.4 261.9 143.52 258.9 145.56C256.02 147.6 252.42 148.62 248.1 148.62ZM352.373 148.98C341.573 148.98 332.213 147.12 324.293 143.4C316.493 139.56 310.493 134.16 306.293 127.2C302.093 120.24 299.993 112.02 299.993 102.54C299.993 93.42 301.973 85.44 305.933 78.6C310.013 71.64 315.533 66.24 322.493 62.4C329.573 58.44 337.613 56.46 346.613 56.46C353.213 56.46 359.213 57.54 364.613 59.7C370.013 61.74 374.633 64.8 378.473 68.88C382.313 72.84 385.193 77.64 387.113 83.28C389.153 88.92 390.173 95.22 390.173 102.18C390.173 104.58 389.513 106.38 388.193 107.58C386.873 108.66 384.773 109.2 381.893 109.2H326.813V94.08H366.773L363.893 96.42C363.893 91.98 363.293 88.38 362.093 85.62C360.893 82.86 359.093 80.76 356.693 79.32C354.413 77.88 351.533 77.16 348.053 77.16C344.333 77.16 341.093 78.06 338.333 79.86C335.693 81.54 333.653 84.06 332.213 87.42C330.773 90.78 330.053 94.98 330.053 100.02V101.64C330.053 110.16 331.913 116.28 335.633 120C339.473 123.6 345.353 125.4 353.273 125.4C355.913 125.4 358.913 125.1 362.273 124.5C365.753 123.78 369.053 122.82 372.173 121.62C375.293 120.42 377.993 120.24 380.273 121.08C382.553 121.8 384.293 123.12 385.493 125.04C386.813 126.84 387.533 128.94 387.653 131.34C387.773 133.62 387.233 135.9 386.033 138.18C384.833 140.34 382.853 142.02 380.093 143.22C375.893 145.14 371.393 146.58 366.593 147.54C361.913 148.5 357.173 148.98 352.373 148.98ZM420.357 148.62C415.077 148.62 410.997 147.24 408.117 144.48C405.357 141.72 403.977 137.7 403.977 132.42V72.84C403.977 67.68 405.297 63.72 407.937 60.96C410.697 58.2 414.597 56.82 419.637 56.82C424.677 56.82 428.517 58.2 431.157 60.96C433.797 63.72 435.117 67.68 435.117 72.84V80.22H433.317C434.517 73.02 437.577 67.32 442.497 63.12C447.537 58.92 453.777 56.7 461.217 56.46C464.697 56.34 467.277 57.24 468.957 59.16C470.757 60.96 471.717 64.38 471.837 69.42C471.837 73.74 470.937 77.16 469.137 79.68C467.337 82.2 463.917 83.7 458.877 84.18L454.737 84.54C448.377 85.14 443.757 86.94 440.877 89.94C437.997 92.82 436.557 97.14 436.557 102.9V132.42C436.557 137.7 435.177 141.72 432.417 144.48C429.657 147.24 425.637 148.62 420.357 148.62ZM524.362 181.38C517.762 181.38 511.582 180.9 505.822 179.94C500.062 179.1 495.082 177.84 490.882 176.16C487.402 174.96 484.942 173.22 483.502 170.94C482.062 168.66 481.402 166.26 481.522 163.74C481.642 161.22 482.302 158.94 483.502 156.9C484.822 154.86 486.562 153.36 488.722 152.4C490.882 151.56 493.282 151.62 495.922 152.58C501.202 154.74 506.002 156.12 510.322 156.72C514.642 157.44 518.302 157.8 521.302 157.8C528.622 157.8 534.082 156.24 537.682 153.12C541.402 150.12 543.262 145.38 543.262 138.9V127.56H544.702C542.902 132.6 539.242 136.74 533.722 139.98C528.202 143.1 522.202 144.66 515.722 144.66C507.802 144.66 500.902 142.86 495.022 139.26C489.142 135.54 484.522 130.38 481.162 123.78C477.922 117.18 476.302 109.44 476.302 100.56C476.302 93.84 477.262 87.78 479.182 82.38C481.102 76.98 483.742 72.36 487.102 68.52C490.582 64.68 494.722 61.74 499.522 59.7C504.442 57.54 509.842 56.46 515.722 56.46C522.442 56.46 528.442 58.02 533.722 61.14C539.122 64.26 542.722 68.34 544.522 73.38L542.722 80.76V72.84C542.722 67.68 544.102 63.72 546.862 60.96C549.742 58.2 553.702 56.82 558.742 56.82C563.782 56.82 567.622 58.2 570.262 60.96C573.022 63.72 574.402 67.68 574.402 72.84V135.12C574.402 150.48 570.082 162 561.442 169.68C552.802 177.48 540.442 181.38 524.362 181.38ZM525.622 121.08C529.222 121.08 532.282 120.3 534.802 118.74C537.322 117.06 539.302 114.72 540.742 111.72C542.182 108.6 542.902 104.88 542.902 100.56C542.902 94.08 541.342 89.04 538.222 85.44C535.102 81.84 530.902 80.04 525.622 80.04C522.262 80.04 519.262 80.88 516.622 82.56C513.982 84.12 511.942 86.46 510.502 89.58C509.182 92.58 508.522 96.24 508.522 100.56C508.522 107.04 510.082 112.08 513.202 115.68C516.322 119.28 520.462 121.08 525.622 121.08ZM608.958 148.62C603.918 148.62 600.018 147.12 597.258 144.12C594.498 141.12 593.118 136.8 593.118 131.16V74.28C593.118 68.64 594.498 64.32 597.258 61.32C600.018 58.32 603.918 56.82 608.958 56.82C614.118 56.82 618.078 58.32 620.838 61.32C623.718 64.32 625.158 68.64 625.158 74.28V131.16C625.158 136.8 623.778 141.12 621.018 144.12C618.258 147.12 614.238 148.62 608.958 148.62ZM608.958 44.04C603.318 44.04 598.938 42.72 595.818 40.08C592.818 37.44 591.318 33.6 591.318 28.56C591.318 23.64 592.818 19.86 595.818 17.22C598.938 14.58 603.318 13.26 608.958 13.26C614.838 13.26 619.278 14.58 622.278 17.22C625.278 19.86 626.778 23.64 626.778 28.56C626.778 33.6 625.278 37.44 622.278 40.08C619.278 42.72 614.838 44.04 608.958 44.04ZM682.983 148.62C678.783 148.62 675.183 147.6 672.183 145.56C669.303 143.4 666.903 140.22 664.983 136.02L639.243 77.16C637.803 73.56 637.323 70.2 637.803 67.08C638.283 63.96 639.783 61.5 642.303 59.7C644.943 57.78 648.543 56.82 653.103 56.82C656.943 56.82 660.003 57.72 662.283 59.52C664.683 61.2 666.843 64.56 668.763 69.6L686.943 116.4H680.823L699.903 69.42C701.823 64.5 703.983 61.2 706.383 59.52C708.783 57.72 712.083 56.82 716.283 56.82C719.883 56.82 722.763 57.78 724.923 59.7C727.203 61.5 728.583 63.96 729.063 67.08C729.543 70.2 728.943 73.56 727.263 77.16L700.983 136.2C699.183 140.4 696.783 143.52 693.783 145.56C690.903 147.6 687.303 148.62 682.983 148.62ZM787.256 148.98C776.456 148.98 767.096 147.12 759.176 143.4C751.376 139.56 745.376 134.16 741.176 127.2C736.976 120.24 734.876 112.02 734.876 102.54C734.876 93.42 736.856 85.44 740.816 78.6C744.896 71.64 750.416 66.24 757.376 62.4C764.456 58.44 772.496 56.46 781.496 56.46C788.096 56.46 794.096 57.54 799.496 59.7C804.896 61.74 809.516 64.8 813.356 68.88C817.196 72.84 820.076 77.64 821.996 83.28C824.036 88.92 825.056 95.22 825.056 102.18C825.056 104.58 824.396 106.38 823.076 107.58C821.756 108.66 819.656 109.2 816.776 109.2H761.696V94.08H801.656L798.776 96.42C798.776 91.98 798.176 88.38 796.976 85.62C795.776 82.86 793.976 80.76 791.576 79.32C789.296 77.88 786.416 77.16 782.936 77.16C779.216 77.16 775.976 78.06 773.216 79.86C770.576 81.54 768.536 84.06 767.096 87.42C765.656 90.78 764.936 94.98 764.936 100.02V101.64C764.936 110.16 766.796 116.28 770.516 120C774.356 123.6 780.236 125.4 788.156 125.4C790.796 125.4 793.796 125.1 797.156 124.5C800.636 123.78 803.936 122.82 807.056 121.62C810.176 120.42 812.876 120.24 815.156 121.08C817.436 121.8 819.176 123.12 820.376 125.04C821.696 126.84 822.416 128.94 822.536 131.34C822.656 133.62 822.116 135.9 820.916 138.18C819.716 140.34 817.736 142.02 814.976 143.22C810.776 145.14 806.276 146.58 801.476 147.54C796.796 148.5 792.056 148.98 787.256 148.98Z" fill="url(#paint0_linear_42_42)"/>
<path d="M237.3 145.56L236.1 147.16L236.137 147.188L236.175 147.214L237.3 145.56ZM230.1 136.02L228.268 136.821L228.274 136.836L228.281 136.852L230.1 136.02ZM204.36 77.16L202.503 77.9028L202.515 77.9323L202.528 77.9613L204.36 77.16ZM202.92 67.08L200.943 66.7759L200.943 66.7759L202.92 67.08ZM207.42 59.7L208.582 61.3275L208.589 61.3225L208.596 61.3175L207.42 59.7ZM227.4 59.52L226.161 61.0898L226.206 61.1254L226.253 61.1585L227.4 59.52ZM233.88 69.6L232.011 70.312L232.016 70.3242L233.88 69.6ZM252.06 116.4V118.4H254.983L253.924 115.676L252.06 116.4ZM245.94 116.4L244.087 115.647L242.969 118.4H245.94V116.4ZM265.02 69.42L266.873 70.1726L266.878 70.1599L266.883 70.1471L265.02 69.42ZM271.5 59.52L272.647 61.1585L272.674 61.1397L272.7 61.12L271.5 59.52ZM290.04 59.7L288.711 61.1948L288.755 61.2336L288.801 61.2698L290.04 59.7ZM294.18 67.08L296.157 66.7759L296.157 66.7759L294.18 67.08ZM292.38 77.16L290.568 76.3142L290.56 76.3304L290.553 76.3467L292.38 77.16ZM266.1 136.2L264.273 135.387L264.267 135.399L264.262 135.412L266.1 136.2ZM258.9 145.56L257.775 143.906L257.76 143.917L257.744 143.928L258.9 145.56ZM248.1 148.62V146.62C244.236 146.62 241.043 145.687 238.425 143.906L237.3 145.56L236.175 147.214C239.557 149.513 243.564 150.62 248.1 150.62V148.62ZM237.3 145.56L238.5 143.96C235.952 142.049 233.738 139.168 231.919 135.188L230.1 136.02L228.281 136.852C230.302 141.272 232.888 144.751 236.1 147.16L237.3 145.56ZM230.1 136.02L231.932 135.219L206.192 76.3587L204.36 77.16L202.528 77.9613L228.268 136.821L230.1 136.02ZM204.36 77.16L206.217 76.4172C204.88 73.0737 204.482 70.0782 204.897 67.3841L202.92 67.08L200.943 66.7759C200.398 70.3218 200.96 74.0462 202.503 77.9028L204.36 77.16ZM202.92 67.08L204.897 67.3841C205.297 64.7853 206.511 62.8074 208.582 61.3275L207.42 59.7L206.258 58.0725C203.289 60.1926 201.503 63.1346 200.943 66.7759L202.92 67.08ZM207.42 59.7L208.596 61.3175C210.783 59.7274 213.919 58.82 218.22 58.82V56.82V54.82C213.401 54.82 209.337 55.8326 206.244 58.0825L207.42 59.7ZM218.22 56.82V58.82C221.755 58.82 224.333 59.6467 226.161 61.0898L227.4 59.52L228.639 57.9502C225.907 55.7933 222.365 54.82 218.22 54.82V56.82ZM227.4 59.52L226.253 61.1585C228.149 62.4854 230.13 65.3752 232.011 70.312L233.88 69.6L235.749 68.888C233.79 63.7448 231.451 59.9146 228.547 57.8815L227.4 59.52ZM233.88 69.6L232.016 70.3242L250.196 117.124L252.06 116.4L253.924 115.676L235.744 68.8758L233.88 69.6ZM252.06 116.4V114.4H245.94V116.4V118.4H252.06V116.4ZM245.94 116.4L247.793 117.153L266.873 70.1726L265.02 69.42L263.167 68.6674L244.087 115.647L245.94 116.4ZM265.02 69.42L266.883 70.1471C268.76 65.3386 270.739 62.4937 272.647 61.1585L271.5 59.52L270.353 57.8815C267.461 59.9063 265.12 63.6614 263.157 68.6929L265.02 69.42ZM271.5 59.52L272.7 61.12C274.639 59.6654 277.464 58.82 281.4 58.82V56.82V54.82C276.936 54.82 273.161 55.7746 270.3 57.92L271.5 59.52ZM281.4 56.82V58.82C284.635 58.82 287.001 59.6747 288.711 61.1948L290.04 59.7L291.369 58.2052C288.759 55.8853 285.365 54.82 281.4 54.82V56.82ZM290.04 59.7L288.801 61.2698C290.648 62.7279 291.793 64.7168 292.203 67.3841L294.18 67.08L296.157 66.7759C295.607 63.2032 293.992 60.2721 291.279 58.1302L290.04 59.7ZM294.18 67.08L292.203 67.3841C292.609 70.0229 292.124 72.9801 290.568 76.3142L292.38 77.16L294.192 78.0058C295.996 74.1399 296.711 70.3771 296.157 66.7759L294.18 67.08ZM292.38 77.16L290.553 76.3467L264.273 135.387L266.1 136.2L267.927 137.013L294.207 77.9733L292.38 77.16ZM266.1 136.2L264.262 135.412C262.573 139.352 260.387 142.13 257.775 143.906L258.9 145.56L260.025 147.214C263.413 144.91 266.027 141.448 267.938 136.988L266.1 136.2ZM258.9 145.56L257.744 143.928C255.271 145.679 252.1 146.62 248.1 146.62V148.62V150.62C252.74 150.62 256.769 149.521 260.056 147.192L258.9 145.56ZM324.293 143.4L323.41 145.194L323.427 145.202L323.443 145.21L324.293 143.4ZM306.293 127.2L304.581 128.233L304.581 128.233L306.293 127.2ZM305.933 78.6L304.208 77.5885L304.203 77.5979L305.933 78.6ZM322.493 62.4L323.46 64.1512L323.47 64.1455L322.493 62.4ZM364.613 59.7L363.871 61.557L363.889 61.5641L363.907 61.5709L364.613 59.7ZM378.473 68.88L377.017 70.2507L377.027 70.2616L377.038 70.2723L378.473 68.88ZM387.113 83.28L385.22 83.9245L385.226 83.9425L385.233 83.9603L387.113 83.28ZM388.193 107.58L389.46 109.128L389.5 109.095L389.539 109.06L388.193 107.58ZM326.813 109.2H324.813V111.2H326.813V109.2ZM326.813 94.08V92.08H324.813V94.08H326.813ZM366.773 94.08L368.035 95.6322L372.407 92.08H366.773V94.08ZM363.893 96.42H361.893V100.622L365.155 97.9722L363.893 96.42ZM356.693 79.32L355.625 81.011L355.645 81.0232L355.664 81.035L356.693 79.32ZM338.333 79.86L339.407 81.5473L339.417 81.5413L339.426 81.5352L338.333 79.86ZM332.213 87.42L330.375 86.6322L330.375 86.6322L332.213 87.42ZM335.633 120L334.219 121.414L334.242 121.437L334.266 121.459L335.633 120ZM362.273 124.5L362.625 126.469L362.652 126.464L362.679 126.459L362.273 124.5ZM372.173 121.62L372.891 123.487L372.891 123.487L372.173 121.62ZM380.273 121.08L379.582 122.957L379.626 122.973L379.671 122.987L380.273 121.08ZM385.493 125.04L383.797 126.1L383.837 126.163L383.881 126.223L385.493 125.04ZM387.653 131.34L385.656 131.44L385.656 131.445L387.653 131.34ZM386.033 138.18L387.782 139.151L387.793 139.132L387.803 139.111L386.033 138.18ZM380.093 143.22L379.296 141.386L379.279 141.393L379.262 141.401L380.093 143.22ZM366.593 147.54L366.201 145.579L366.192 145.581L366.593 147.54ZM352.373 148.98V146.98C341.8 146.98 332.743 145.159 325.144 141.59L324.293 143.4L323.443 145.21C331.684 149.081 341.347 150.98 352.373 150.98V148.98ZM324.293 143.4L325.177 141.606C317.695 137.922 311.994 132.776 308.006 126.167L306.293 127.2L304.581 128.233C308.993 135.544 315.292 141.198 323.41 145.194L324.293 143.4ZM306.293 127.2L308.006 126.167C304.023 119.567 301.993 111.717 301.993 102.54H299.993H297.993C297.993 112.323 300.164 120.913 304.581 128.233L306.293 127.2ZM299.993 102.54H301.993C301.993 93.717 303.906 86.0933 307.664 79.6021L305.933 78.6L304.203 77.5979C300.041 84.7867 297.993 93.123 297.993 102.54H299.993ZM305.933 78.6L307.659 79.6114C311.56 72.9569 316.82 67.8146 323.46 64.1512L322.493 62.4L321.527 60.6488C314.247 64.6653 308.467 70.3231 304.208 77.5886L305.933 78.6ZM322.493 62.4L323.47 64.1455C330.22 60.3701 337.917 58.46 346.613 58.46V56.46V54.46C337.31 54.46 328.927 56.5099 321.517 60.6545L322.493 62.4ZM346.613 56.46V58.46C352.993 58.46 358.737 59.5033 363.871 61.557L364.613 59.7L365.356 57.843C359.69 55.5767 353.434 54.46 346.613 54.46V56.46ZM364.613 59.7L363.907 61.5709C369.031 63.5068 373.392 66.3991 377.017 70.2507L378.473 68.88L379.93 67.5093C375.875 63.2009 370.996 59.9732 365.32 57.8291L364.613 59.7ZM378.473 68.88L377.038 70.2723C380.656 74.0033 383.388 78.5417 385.22 83.9245L387.113 83.28L389.007 82.6355C386.999 76.7383 383.971 71.6767 379.909 67.4877L378.473 68.88ZM387.113 83.28L385.233 83.9603C387.182 89.3502 388.173 95.4154 388.173 102.18H390.173H392.173C392.173 95.0246 391.125 88.4898 388.994 82.5997L387.113 83.28ZM390.173 102.18H388.173C388.173 104.22 387.621 105.397 386.848 106.1L388.193 107.58L389.539 109.06C391.406 107.363 392.173 104.94 392.173 102.18H390.173ZM388.193 107.58L386.927 106.032C386.138 106.677 384.603 107.2 381.893 107.2V109.2V111.2C384.944 111.2 387.609 110.643 389.46 109.128L388.193 107.58ZM381.893 109.2V107.2H326.813V109.2V111.2H381.893V109.2ZM326.813 109.2H328.813V94.08H326.813H324.813V109.2H326.813ZM326.813 94.08V96.08H366.773V94.08V92.08H326.813V94.08ZM366.773 94.08L365.512 92.5278L362.632 94.8678L363.893 96.42L365.155 97.9722L368.035 95.6322L366.773 94.08ZM363.893 96.42H365.893C365.893 91.8247 365.276 87.9243 363.928 84.8225L362.093 85.62L360.259 86.4174C361.311 88.8357 361.893 92.1353 361.893 96.42H363.893ZM362.093 85.62L363.928 84.8225C362.575 81.7107 360.507 79.2759 357.722 77.605L356.693 79.32L355.664 81.035C357.68 82.2441 359.212 84.0093 360.259 86.4174L362.093 85.62ZM356.693 79.32L357.761 77.629C355.081 75.9362 351.803 75.16 348.053 75.16V77.16V79.16C351.264 79.16 353.746 79.8238 355.625 81.011L356.693 79.32ZM348.053 77.16V75.16C343.997 75.16 340.367 76.1463 337.241 78.1848L338.333 79.86L339.426 81.5352C341.82 79.9737 344.67 79.16 348.053 79.16V77.16ZM338.333 79.86L337.26 78.1727C334.226 80.1032 331.946 82.9661 330.375 86.6322L332.213 87.42L334.052 88.2078C335.361 85.1539 337.161 82.9767 339.407 81.5473L338.333 79.86ZM332.213 87.42L330.375 86.6322C328.796 90.3163 328.053 94.8051 328.053 100.02H330.053H332.053C332.053 95.1549 332.751 91.2437 334.052 88.2078L332.213 87.42ZM330.053 100.02H328.053V101.64H330.053H332.053V100.02H330.053ZM330.053 101.64H328.053C328.053 110.376 329.949 117.144 334.219 121.414L335.633 120L337.048 118.586C333.878 115.416 332.053 109.944 332.053 101.64H330.053ZM335.633 120L334.266 121.459C338.626 125.547 345.096 127.4 353.273 127.4V125.4V123.4C345.611 123.4 340.321 121.653 337.001 118.541L335.633 120ZM353.273 125.4V127.4C356.06 127.4 359.181 127.084 362.625 126.469L362.273 124.5L361.922 122.531C358.646 123.116 355.767 123.4 353.273 123.4V125.4ZM362.273 124.5L362.679 126.459C366.259 125.718 369.664 124.728 372.891 123.487L372.173 121.62L371.455 119.753C368.443 120.912 365.248 121.842 361.868 122.541L362.273 124.5ZM372.173 121.62L372.891 123.487C375.729 122.395 377.904 122.338 379.582 122.957L380.273 121.08L380.965 119.203C378.083 118.142 374.858 118.445 371.455 119.753L372.173 121.62ZM380.273 121.08L379.671 122.987C381.525 123.573 382.865 124.607 383.797 126.1L385.493 125.04L387.189 123.98C385.722 121.633 383.582 120.027 380.876 119.173L380.273 121.08ZM385.493 125.04L383.881 126.223C384.951 127.683 385.554 129.399 385.656 131.44L387.653 131.34L389.651 131.24C389.513 128.481 388.676 125.997 387.106 123.857L385.493 125.04ZM387.653 131.34L385.656 131.445C385.755 133.321 385.318 135.245 384.264 137.249L386.033 138.18L387.803 139.111C389.149 136.555 389.792 133.919 389.651 131.235L387.653 131.34ZM386.033 138.18L384.285 137.209C383.342 138.906 381.743 140.322 379.296 141.386L380.093 143.22L380.891 145.054C383.964 143.718 386.325 141.774 387.782 139.151L386.033 138.18ZM380.093 143.22L379.262 141.401C375.211 143.253 370.859 144.647 366.201 145.579L366.593 147.54L366.986 149.501C371.928 148.513 376.576 147.027 380.925 145.039L380.093 143.22ZM366.593 147.54L366.192 145.581C361.644 146.514 357.039 146.98 352.373 146.98V148.98V150.98C357.308 150.98 362.182 150.486 366.995 149.499L366.593 147.54ZM408.117 144.48L406.703 145.894L406.718 145.909L406.733 145.924L408.117 144.48ZM407.937 60.96L406.523 59.5458L406.507 59.5615L406.492 59.5776L407.937 60.96ZM431.157 60.96L429.712 62.3424L429.712 62.3424L431.157 60.96ZM435.117 80.22V82.22H437.117V80.22H435.117ZM433.317 80.22L431.344 79.8912L430.956 82.22H433.317V80.22ZM442.497 63.12L441.217 61.5836L441.208 61.5912L441.199 61.5989L442.497 63.12ZM461.217 56.46L461.282 58.459L461.286 58.4588L461.217 56.46ZM468.957 59.16L467.452 60.477L467.496 60.5271L467.543 60.5742L468.957 59.16ZM471.837 69.42H473.837V69.3962L473.837 69.3724L471.837 69.42ZM469.137 79.68L470.765 80.8425L470.765 80.8425L469.137 79.68ZM458.877 84.18L459.05 86.1725L459.059 86.1718L459.067 86.171L458.877 84.18ZM454.737 84.54L454.564 82.5475L454.557 82.5482L454.549 82.5488L454.737 84.54ZM440.877 89.94L442.291 91.3542L442.306 91.3398L442.32 91.3251L440.877 89.94ZM432.417 144.48L431.003 143.066L432.417 144.48ZM420.357 148.62V146.62C415.421 146.62 411.901 145.336 409.501 143.036L408.117 144.48L406.733 145.924C410.094 149.144 414.733 150.62 420.357 150.62V148.62ZM408.117 144.48L409.531 143.066C407.264 140.798 405.977 137.362 405.977 132.42H403.977H401.977C401.977 138.038 403.451 142.642 406.703 145.894L408.117 144.48ZM403.977 132.42H405.977V72.84H403.977H401.977V132.42H403.977ZM403.977 72.84H405.977C405.977 68.0104 407.208 64.6153 409.382 62.3424L407.937 60.96L406.492 59.5776C403.386 62.8247 401.977 67.3496 401.977 72.84H403.977ZM407.937 60.96L409.351 62.3742C411.636 60.0898 414.966 58.82 419.637 58.82V56.82V54.82C414.228 54.82 409.759 56.3102 406.523 59.5458L407.937 60.96ZM419.637 56.82V58.82C424.314 58.82 427.559 60.0916 429.712 62.3424L431.157 60.96L432.602 59.5776C429.475 56.3084 425.041 54.82 419.637 54.82V56.82ZM431.157 60.96L429.712 62.3424C431.886 64.6153 433.117 68.0104 433.117 72.84H435.117H437.117C437.117 67.3496 435.708 62.8247 432.602 59.5776L431.157 60.96ZM435.117 72.84H433.117V80.22H435.117H437.117V72.84H435.117ZM435.117 80.22V78.22H433.317V80.22V82.22H435.117V80.22ZM433.317 80.22L435.29 80.5488C436.423 73.7498 439.28 68.4962 443.796 64.6411L442.497 63.12L441.199 61.5989C435.875 66.1438 432.611 72.2902 431.344 79.8912L433.317 80.22ZM442.497 63.12L443.778 64.6564C448.43 60.7797 454.224 58.6866 461.282 58.459L461.217 56.46L461.153 54.461C453.33 54.7134 446.645 57.0603 441.217 61.5836L442.497 63.12ZM461.217 56.46L461.286 58.4588C464.398 58.3515 466.299 59.1589 467.452 60.477L468.957 59.16L470.462 57.843C468.256 55.3211 464.997 54.3285 461.148 54.4612L461.217 56.46ZM468.957 59.16L467.543 60.5742C468.758 61.789 469.72 64.5051 469.838 69.4676L471.837 69.42L473.837 69.3724C473.715 64.2549 472.757 60.131 470.371 57.7458L468.957 59.16ZM471.837 69.42H469.837C469.837 73.4831 468.989 76.4471 467.51 78.5175L469.137 79.68L470.765 80.8425C472.886 77.8729 473.837 73.9969 473.837 69.42H471.837ZM469.137 79.68L467.51 78.5175C466.21 80.337 463.508 81.7299 458.688 82.189L458.877 84.18L459.067 86.171C464.327 85.6701 468.464 84.063 470.765 80.8425L469.137 79.68ZM458.877 84.18L458.704 82.1875L454.564 82.5475L454.737 84.54L454.91 86.5325L459.05 86.1725L458.877 84.18ZM454.737 84.54L454.549 82.5488C447.957 83.1707 442.785 85.0652 439.434 88.5549L440.877 89.94L442.32 91.3251C444.73 88.8148 448.797 87.1093 454.925 86.5312L454.737 84.54ZM440.877 89.94L439.463 88.5258C436.076 91.9131 434.557 96.8317 434.557 102.9H436.557H438.557C438.557 97.4483 439.919 93.7269 442.291 91.3542L440.877 89.94ZM436.557 102.9H434.557V132.42H436.557H438.557V102.9H436.557ZM436.557 132.42H434.557C434.557 137.362 433.271 140.798 431.003 143.066L432.417 144.48L433.831 145.894C437.084 142.642 438.557 138.038 438.557 132.42H436.557ZM432.417 144.48L431.003 143.066C428.735 145.334 425.299 146.62 420.357 146.62V148.62V150.62C425.975 150.62 430.579 149.146 433.831 145.894L432.417 144.48ZM505.822 179.94L506.151 177.967L506.131 177.964L506.111 177.961L505.822 179.94ZM490.882 176.16L491.625 174.303L491.58 174.285L491.534 174.269L490.882 176.16ZM483.502 170.94L485.193 169.872L485.193 169.872L483.502 170.94ZM481.522 163.74L479.524 163.645L479.524 163.645L481.522 163.74ZM483.502 156.9L481.823 155.813L481.8 155.849L481.778 155.886L483.502 156.9ZM488.722 152.4L487.997 150.536L487.953 150.553L487.91 150.572L488.722 152.4ZM495.922 152.58L496.679 150.729L496.643 150.714L496.606 150.7L495.922 152.58ZM510.322 156.72L510.651 154.747L510.624 154.743L510.597 154.739L510.322 156.72ZM537.682 153.12L536.427 151.563L536.399 151.585L536.372 151.609L537.682 153.12ZM543.262 127.56V125.56H541.262V127.56H543.262ZM544.702 127.56L546.586 128.233L547.54 125.56H544.702V127.56ZM533.722 139.98L534.706 141.721L534.72 141.713L534.734 141.705L533.722 139.98ZM495.022 139.26L493.953 140.95L493.965 140.958L493.978 140.966L495.022 139.26ZM481.162 123.78L479.367 124.661L479.373 124.674L479.38 124.687L481.162 123.78ZM479.182 82.38L477.298 81.71L477.298 81.71L479.182 82.38ZM487.102 68.52L485.62 67.177L485.608 67.1899L485.597 67.203L487.102 68.52ZM499.522 59.7L500.304 61.5407L500.315 61.536L500.326 61.5313L499.522 59.7ZM533.722 61.14L532.705 62.8618L532.713 62.8668L532.721 62.8717L533.722 61.14ZM544.522 73.38L546.465 73.8539L546.607 73.2717L546.406 72.7073L544.522 73.38ZM542.722 80.76H540.722L544.665 81.2339L542.722 80.76ZM546.862 60.96L545.478 59.516L545.463 59.5307L545.448 59.5458L546.862 60.96ZM570.262 60.96L568.817 62.3424L568.832 62.3585L568.848 62.3742L570.262 60.96ZM561.442 169.68L560.113 168.185L560.108 168.19L560.102 168.195L561.442 169.68ZM534.802 118.74L535.855 120.441L535.883 120.423L535.911 120.404L534.802 118.74ZM540.742 111.72L542.545 112.585L542.552 112.572L542.558 112.558L540.742 111.72ZM538.222 85.44L539.733 84.1301L539.733 84.1301L538.222 85.44ZM516.622 82.56L517.639 84.2819L517.668 84.2651L517.696 84.2473L516.622 82.56ZM510.502 89.58L508.686 88.7419L508.679 88.7581L508.671 88.7745L510.502 89.58ZM524.362 181.38V179.38C517.858 179.38 511.789 178.907 506.151 177.967L505.822 179.94L505.493 181.913C511.375 182.893 517.666 183.38 524.362 183.38V181.38ZM505.822 179.94L506.111 177.961C500.464 177.138 495.644 175.911 491.625 174.303L490.882 176.16L490.139 178.017C494.52 179.769 499.66 181.062 505.533 181.919L505.822 179.94ZM490.882 176.16L491.534 174.269C488.328 173.164 486.315 171.648 485.193 169.872L483.502 170.94L481.811 172.008C483.569 174.792 486.476 176.756 490.23 178.051L490.882 176.16ZM483.502 170.94L485.193 169.872C483.956 167.914 483.421 165.916 483.52 163.835L481.522 163.74L479.524 163.645C479.383 166.604 480.168 169.406 481.811 172.008L483.502 170.94ZM481.522 163.74L483.52 163.835C483.625 161.617 484.201 159.656 485.226 157.914L483.502 156.9L481.778 155.886C480.403 158.224 479.659 160.823 479.524 163.645L481.522 163.74ZM483.502 156.9L485.181 157.987C486.297 156.263 487.739 155.025 489.534 154.228L488.722 152.4L487.91 150.572C485.385 151.695 483.348 153.457 481.823 155.813L483.502 156.9ZM488.722 152.4L489.447 154.264C491.064 153.635 492.953 153.629 495.239 154.46L495.922 152.58L496.606 150.7C493.611 149.611 490.7 149.485 487.997 150.536L488.722 152.4ZM495.922 152.58L495.165 154.431C500.555 156.636 505.52 158.072 510.047 158.701L510.322 156.72L510.597 154.739C506.484 154.168 501.849 152.844 496.679 150.729L495.922 152.58ZM510.322 156.72L509.993 158.693C514.377 159.423 518.154 159.8 521.302 159.8V157.8V155.8C518.45 155.8 514.907 155.457 510.651 154.747L510.322 156.72ZM521.302 157.8V159.8C528.856 159.8 534.877 158.198 538.992 154.631L537.682 153.12L536.372 151.609C533.287 154.282 528.388 155.8 521.302 155.8V157.8ZM537.682 153.12L538.938 154.677C543.282 151.174 545.262 145.756 545.262 138.9H543.262H541.262C541.262 145.004 539.522 149.066 536.427 151.563L537.682 153.12ZM543.262 138.9H545.262V127.56H543.262H541.262V138.9H543.262ZM543.262 127.56V129.56H544.702V127.56V125.56H543.262V127.56ZM544.702 127.56L542.819 126.887C541.206 131.403 537.908 135.204 532.71 138.255L533.722 139.98L534.734 141.705C540.576 138.276 544.598 133.797 546.586 128.233L544.702 127.56ZM533.722 139.98L532.738 138.239C527.525 141.185 521.865 142.66 515.722 142.66V144.66V146.66C522.539 146.66 528.879 145.015 534.706 141.721L533.722 139.98ZM515.722 144.66V142.66C508.115 142.66 501.588 140.935 496.066 137.554L495.022 139.26L493.978 140.966C500.217 144.785 507.489 146.66 515.722 146.66V144.66ZM495.022 139.26L496.091 137.57C490.535 134.054 486.152 129.174 482.944 122.873L481.162 123.78L479.38 124.687C482.892 131.586 487.749 137.026 493.953 140.95L495.022 139.26ZM481.162 123.78L482.957 122.899C479.877 116.624 478.302 109.197 478.302 100.56H476.302H474.302C474.302 109.683 475.967 117.736 479.367 124.661L481.162 123.78ZM476.302 100.56H478.302C478.302 94.0298 479.235 88.2014 481.066 83.05L479.182 82.38L477.298 81.71C475.289 87.3586 474.302 93.6502 474.302 100.56H476.302ZM479.182 82.38L481.066 83.05C482.912 77.8585 485.433 73.4652 488.607 69.837L487.102 68.52L485.597 67.203C482.052 71.2548 479.292 76.1015 477.298 81.71L479.182 82.38ZM487.102 68.52L488.584 69.863C491.868 66.239 495.769 63.4681 500.304 61.5407L499.522 59.7L498.74 57.8593C493.675 60.0118 489.296 63.121 485.62 67.177L487.102 68.52ZM499.522 59.7L500.326 61.5313C504.97 59.4927 510.092 58.46 515.722 58.46V56.46V54.46C509.592 54.46 503.915 55.5873 498.718 57.8687L499.522 59.7ZM515.722 56.46V58.46C522.119 58.46 527.762 59.9411 532.705 62.8618L533.722 61.14L534.739 59.4181C529.122 56.0989 522.765 54.46 515.722 54.46V56.46ZM533.722 61.14L532.721 62.8717C537.783 65.7959 541.024 69.5313 542.639 74.0527L544.522 73.38L546.406 72.7073C544.42 67.1487 540.462 62.7241 534.723 59.4083L533.722 61.14ZM544.522 73.38L542.579 72.9061L540.779 80.2861L542.722 80.76L544.665 81.2339L546.465 73.8539L544.522 73.38ZM542.722 80.76H544.722V72.84H542.722H540.722V80.76H542.722ZM542.722 72.84H544.722C544.722 68.0334 546 64.6502 548.276 62.3742L546.862 60.96L545.448 59.5458C542.204 62.7898 540.722 67.3265 540.722 72.84H542.722ZM546.862 60.96L548.246 62.404C550.662 60.0883 554.076 58.82 558.742 58.82V56.82V54.82C553.328 54.82 548.822 56.3117 545.478 59.516L546.862 60.96ZM558.742 56.82V58.82C563.418 58.82 566.664 60.0916 568.817 62.3424L570.262 60.96L571.707 59.5776C568.58 56.3084 564.146 54.82 558.742 54.82V56.82ZM570.262 60.96L568.848 62.3742C571.124 64.6502 572.402 68.0334 572.402 72.84H574.402H576.402C576.402 67.3265 574.92 62.7898 571.676 59.5458L570.262 60.96ZM574.402 72.84H572.402V135.12H574.402H576.402V72.84H574.402ZM574.402 135.12H572.402C572.402 150.107 568.198 160.999 560.113 168.185L561.442 169.68L562.771 171.175C571.966 163.001 576.402 150.853 576.402 135.12H574.402ZM561.442 169.68L560.102 168.195C551.949 175.555 540.137 179.38 524.362 179.38V181.38V183.38C540.747 183.38 553.655 179.405 562.782 171.165L561.442 169.68ZM525.622 121.08V123.08C529.514 123.08 532.957 122.235 535.855 120.441L534.802 118.74L533.749 117.039C531.607 118.365 528.93 119.08 525.622 119.08V121.08ZM534.802 118.74L535.911 120.404C538.759 118.506 540.966 115.876 542.545 112.585L540.742 111.72L538.939 110.855C537.639 113.564 535.885 115.614 533.693 117.076L534.802 118.74ZM540.742 111.72L542.558 112.558C544.146 109.117 544.902 105.097 544.902 100.56H542.902H540.902C540.902 104.663 540.218 108.083 538.926 110.882L540.742 111.72ZM542.902 100.56H544.902C544.902 93.7729 543.266 88.2067 539.733 84.1301L538.222 85.44L536.711 86.7499C539.418 89.8733 540.902 94.3871 540.902 100.56H542.902ZM538.222 85.44L539.733 84.1301C536.19 80.0412 531.412 78.04 525.622 78.04V80.04V82.04C530.393 82.04 534.014 83.6388 536.711 86.7499L538.222 85.44ZM525.622 80.04V78.04C521.911 78.04 518.533 78.9733 515.548 80.8727L516.622 82.56L517.696 84.2473C519.991 82.7867 522.613 82.04 525.622 82.04V80.04ZM516.622 82.56L515.605 80.8381C512.573 82.6293 510.275 85.2993 508.686 88.7419L510.502 89.58L512.318 90.4181C513.609 87.6207 515.391 85.6107 517.639 84.2819L516.622 82.56ZM510.502 89.58L508.671 88.7745C507.21 92.0954 506.522 96.0466 506.522 100.56H508.522H510.522C510.522 96.4334 511.154 93.0646 512.333 90.3855L510.502 89.58ZM508.522 100.56H506.522C506.522 107.347 508.158 112.913 511.691 116.99L513.202 115.68L514.713 114.37C512.006 111.247 510.522 106.733 510.522 100.56H508.522ZM513.202 115.68L511.691 116.99C515.225 121.068 519.936 123.08 525.622 123.08V121.08V119.08C520.988 119.08 517.419 117.492 514.713 114.37L513.202 115.68ZM597.258 144.12L598.73 142.766L598.73 142.766L597.258 144.12ZM597.258 61.32L598.73 62.6741L598.73 62.6741L597.258 61.32ZM620.838 61.32L619.366 62.6741L619.38 62.6897L619.395 62.7051L620.838 61.32ZM621.018 144.12L622.49 145.474L622.49 145.474L621.018 144.12ZM595.818 40.08L594.497 41.5814L594.511 41.5942L594.526 41.6068L595.818 40.08ZM595.818 17.22L594.526 15.6932L594.511 15.7058L594.497 15.7186L595.818 17.22ZM622.278 17.22L620.957 18.7214L620.957 18.7214L622.278 17.22ZM622.278 40.08L623.599 41.5814L623.599 41.5814L622.278 40.08ZM608.958 148.62V146.62C604.335 146.62 601.024 145.26 598.73 142.766L597.258 144.12L595.786 145.474C599.011 148.98 603.501 150.62 608.958 150.62V148.62ZM597.258 144.12L598.73 142.766C596.421 140.256 595.118 136.492 595.118 131.16H593.118H591.118C591.118 137.108 592.575 141.984 595.786 145.474L597.258 144.12ZM593.118 131.16H595.118V74.28H593.118H591.118V131.16H593.118ZM593.118 74.28H595.118C595.118 68.9479 596.421 65.1836 598.73 62.6741L597.258 61.32L595.786 59.9659C592.575 63.4564 591.118 68.3321 591.118 74.28H593.118ZM597.258 61.32L598.73 62.6741C601.024 60.1798 604.335 58.82 608.958 58.82V56.82V54.82C603.501 54.82 599.011 56.4602 595.786 59.9659L597.258 61.32ZM608.958 56.82V58.82C613.717 58.82 617.08 60.1895 619.366 62.6741L620.838 61.32L622.31 59.9659C619.076 56.4505 614.519 54.82 608.958 54.82V56.82ZM620.838 61.32L619.395 62.7051C621.806 65.2162 623.158 68.9686 623.158 74.28H625.158H627.158C627.158 68.3114 625.63 63.4238 622.281 59.9349L620.838 61.32ZM625.158 74.28H623.158V131.16H625.158H627.158V74.28H625.158ZM625.158 131.16H623.158C623.158 136.492 621.855 140.256 619.546 142.766L621.018 144.12L622.49 145.474C625.701 141.984 627.158 137.108 627.158 131.16H625.158ZM621.018 144.12L619.546 142.766C617.269 145.241 613.853 146.62 608.958 146.62V148.62V150.62C614.623 150.62 619.247 148.999 622.49 145.474L621.018 144.12ZM608.958 44.04V42.04C603.612 42.04 599.752 40.7891 597.11 38.5532L595.818 40.08L594.526 41.6068C598.124 44.6509 603.024 46.04 608.958 46.04V44.04ZM595.818 40.08L597.139 38.5786C594.679 36.4133 593.318 33.1867 593.318 28.56H591.318H589.318C589.318 34.0133 590.957 38.4667 594.497 41.5814L595.818 40.08ZM591.318 28.56H593.318C593.318 24.0707 594.668 20.896 597.139 18.7214L595.818 17.22L594.497 15.7186C590.968 18.824 589.318 23.2092 589.318 28.56H591.318ZM595.818 17.22L597.11 18.7468C599.752 16.5109 603.612 15.26 608.958 15.26V13.26V11.26C603.024 11.26 598.124 12.6491 594.526 15.6932L595.818 17.22ZM608.958 13.26V15.26C614.576 15.26 618.461 16.525 620.957 18.7214L622.278 17.22L623.599 15.7186C620.095 12.6349 615.1 11.26 608.958 11.26V13.26ZM622.278 17.22L620.957 18.7214C623.428 20.8959 624.778 24.0707 624.778 28.56H626.778H628.778C628.778 23.2092 627.128 18.824 623.599 15.7186L622.278 17.22ZM626.778 28.56H624.778C624.778 33.1867 623.417 36.4133 620.957 38.5786L622.278 40.08L623.599 41.5814C627.139 38.4667 628.778 34.0133 628.778 28.56H626.778ZM622.278 40.08L620.957 38.5786C618.461 40.7749 614.576 42.04 608.958 42.04V44.04V46.04C615.1 46.04 620.095 44.665 623.599 41.5814L622.278 40.08ZM672.183 145.56L670.983 147.16L671.02 147.188L671.058 147.214L672.183 145.56ZM664.983 136.02L663.15 136.821L663.157 136.836L663.164 136.852L664.983 136.02ZM639.243 77.16L637.386 77.9028L637.398 77.9323L637.41 77.9613L639.243 77.16ZM637.803 67.08L635.826 66.7759L635.826 66.7759L637.803 67.08ZM642.303 59.7L643.465 61.3275L643.472 61.3225L643.479 61.3175L642.303 59.7ZM662.283 59.52L661.044 61.0898L661.089 61.1254L661.136 61.1585L662.283 59.52ZM668.763 69.6L666.894 70.312L666.899 70.3242L668.763 69.6ZM686.943 116.4V118.4H689.865L688.807 115.676L686.943 116.4ZM680.823 116.4L678.97 115.647L677.852 118.4H680.823V116.4ZM699.903 69.42L701.756 70.1726L701.761 70.1599L701.766 70.1471L699.903 69.42ZM706.383 59.52L707.53 61.1585L707.557 61.1397L707.583 61.12L706.383 59.52ZM724.923 59.7L723.594 61.1948L723.638 61.2336L723.684 61.2698L724.923 59.7ZM729.063 67.08L731.04 66.7759L731.04 66.7759L729.063 67.08ZM727.263 77.16L725.45 76.3142L725.443 76.3304L725.436 76.3467L727.263 77.16ZM700.983 136.2L699.156 135.387L699.15 135.399L699.145 135.412L700.983 136.2ZM693.783 145.56L692.658 143.906L692.642 143.917L692.627 143.928L693.783 145.56ZM682.983 148.62V146.62C679.119 146.62 675.926 145.687 673.307 143.906L672.183 145.56L671.058 147.214C674.44 149.513 678.447 150.62 682.983 150.62V148.62ZM672.183 145.56L673.383 143.96C670.835 142.049 668.621 139.168 666.802 135.188L664.983 136.02L663.164 136.852C665.184 141.272 667.77 144.751 670.983 147.16L672.183 145.56ZM664.983 136.02L666.815 135.219L641.075 76.3587L639.243 77.16L637.41 77.9613L663.15 136.821L664.983 136.02ZM639.243 77.16L641.1 76.4172C639.762 73.0737 639.365 70.0782 639.78 67.3841L637.803 67.08L635.826 66.7759C635.281 70.3218 635.843 74.0462 637.386 77.9028L639.243 77.16ZM637.803 67.08L639.78 67.3841C640.179 64.7853 641.393 62.8074 643.465 61.3275L642.303 59.7L641.14 58.0725C638.172 60.1926 636.386 63.1346 635.826 66.7759L637.803 67.08ZM642.303 59.7L643.479 61.3175C645.665 59.7274 648.802 58.82 653.103 58.82V56.82V54.82C648.283 54.82 644.22 55.8326 641.126 58.0825L642.303 59.7ZM653.103 56.82V58.82C656.638 58.82 659.216 59.6467 661.044 61.0898L662.283 59.52L663.522 57.9502C660.79 55.7933 657.247 54.82 653.103 54.82V56.82ZM662.283 59.52L661.136 61.1585C663.032 62.4854 665.013 65.3752 666.894 70.312L668.763 69.6L670.632 68.888C668.672 63.7448 666.334 59.9146 663.43 57.8815L662.283 59.52ZM668.763 69.6L666.899 70.3242L685.079 117.124L686.943 116.4L688.807 115.676L670.627 68.8758L668.763 69.6ZM686.943 116.4V114.4H680.823V116.4V118.4H686.943V116.4ZM680.823 116.4L682.676 117.153L701.756 70.1726L699.903 69.42L698.05 68.6674L678.97 115.647L680.823 116.4ZM699.903 69.42L701.766 70.1471C703.642 65.3386 705.622 62.4937 707.53 61.1585L706.383 59.52L705.236 57.8815C702.343 59.9063 700.003 63.6614 698.04 68.6929L699.903 69.42ZM706.383 59.52L707.583 61.12C709.522 59.6654 712.347 58.82 716.283 58.82V56.82V54.82C711.819 54.82 708.043 55.7746 705.183 57.92L706.383 59.52ZM716.283 56.82V58.82C719.518 58.82 721.884 59.6747 723.594 61.1948L724.923 59.7L726.252 58.2052C723.642 55.8853 720.248 54.82 716.283 54.82V56.82ZM724.923 59.7L723.684 61.2698C725.53 62.7279 726.676 64.7168 727.086 67.3841L729.063 67.08L731.04 66.7759C730.49 63.2032 728.875 60.2721 726.162 58.1302L724.923 59.7ZM729.063 67.08L727.086 67.3841C727.492 70.0229 727.006 72.9801 725.45 76.3142L727.263 77.16L729.075 78.0058C730.879 74.1399 731.594 70.3771 731.04 66.7759L729.063 67.08ZM727.263 77.16L725.436 76.3467L699.156 135.387L700.983 136.2L702.81 137.013L729.09 77.9733L727.263 77.16ZM700.983 136.2L699.145 135.412C697.456 139.352 695.27 142.13 692.658 143.906L693.783 145.56L694.907 147.214C698.296 144.91 700.91 141.448 702.821 136.988L700.983 136.2ZM693.783 145.56L692.627 143.928C690.154 145.679 686.983 146.62 682.983 146.62V148.62V150.62C687.623 150.62 691.651 149.521 694.939 147.192L693.783 145.56ZM759.176 143.4L758.293 145.194L758.309 145.202L758.326 145.21L759.176 143.4ZM741.176 127.2L739.464 128.233L739.464 128.233L741.176 127.2ZM740.816 78.6L739.091 77.5885L739.085 77.5979L740.816 78.6ZM757.376 62.4L758.342 64.1512L758.353 64.1455L757.376 62.4ZM799.496 59.7L798.753 61.557L798.771 61.5641L798.789 61.5709L799.496 59.7ZM813.356 68.88L811.9 70.2507L811.91 70.2616L811.92 70.2723L813.356 68.88ZM821.996 83.28L820.103 83.9245L820.109 83.9425L820.115 83.9603L821.996 83.28ZM823.076 107.58L824.343 109.128L824.383 109.095L824.422 109.06L823.076 107.58ZM761.696 109.2H759.696V111.2H761.696V109.2ZM761.696 94.08V92.08H759.696V94.08H761.696ZM801.656 94.08L802.917 95.6322L807.289 92.08H801.656V94.08ZM798.776 96.42H796.776V100.622L800.037 97.9722L798.776 96.42ZM791.576 79.32L790.508 81.011L790.528 81.0232L790.547 81.035L791.576 79.32ZM773.216 79.86L774.29 81.5473L774.299 81.5413L774.309 81.5352L773.216 79.86ZM767.096 87.42L765.258 86.6322L765.258 86.6322L767.096 87.42ZM770.516 120L769.102 121.414L769.125 121.437L769.148 121.459L770.516 120ZM797.156 124.5L797.508 126.469L797.535 126.464L797.561 126.459L797.156 124.5ZM807.056 121.62L807.774 123.487L807.774 123.487L807.056 121.62ZM815.156 121.08L814.465 122.957L814.509 122.973L814.554 122.987L815.156 121.08ZM820.376 125.04L818.68 126.1L818.72 126.163L818.763 126.223L820.376 125.04ZM822.536 131.34L820.539 131.44L820.539 131.445L822.536 131.34ZM820.916 138.18L822.665 139.151L822.676 139.132L822.686 139.111L820.916 138.18ZM814.976 143.22L814.179 141.386L814.162 141.393L814.145 141.401L814.976 143.22ZM801.476 147.54L801.084 145.579L801.074 145.581L801.476 147.54ZM787.256 148.98V146.98C776.683 146.98 767.626 145.159 760.027 141.59L759.176 143.4L758.326 145.21C766.567 149.081 776.23 150.98 787.256 150.98V148.98ZM759.176 143.4L760.06 141.606C752.578 137.922 746.877 132.776 742.889 126.167L741.176 127.2L739.464 128.233C743.876 135.544 750.174 141.198 758.293 145.194L759.176 143.4ZM741.176 127.2L742.889 126.167C738.906 119.567 736.876 111.717 736.876 102.54H734.876H732.876C732.876 112.323 735.046 120.913 739.464 128.233L741.176 127.2ZM734.876 102.54H736.876C736.876 93.717 738.789 86.0933 742.547 79.6021L740.816 78.6L739.085 77.5979C734.923 84.7867 732.876 93.123 732.876 102.54H734.876ZM740.816 78.6L742.542 79.6114C746.443 72.9569 751.702 67.8146 758.342 64.1512L757.376 62.4L756.41 60.6488C749.13 64.6653 743.35 70.3231 739.091 77.5886L740.816 78.6ZM757.376 62.4L758.353 64.1455C765.103 60.3701 772.8 58.46 781.496 58.46V56.46V54.46C772.193 54.46 763.81 56.5099 756.4 60.6545L757.376 62.4ZM781.496 56.46V58.46C787.876 58.46 793.619 59.5033 798.753 61.557L799.496 59.7L800.239 57.843C794.573 55.5767 788.317 54.46 781.496 54.46V56.46ZM799.496 59.7L798.789 61.5709C803.914 63.5068 808.275 66.3991 811.9 70.2507L813.356 68.88L814.813 67.5093C810.758 63.2009 805.879 59.9732 800.203 57.8291L799.496 59.7ZM813.356 68.88L811.92 70.2723C815.538 74.0033 818.271 78.5417 820.103 83.9245L821.996 83.28L823.89 82.6355C821.882 76.7383 818.854 71.6767 814.792 67.4877L813.356 68.88ZM821.996 83.28L820.115 83.9603C822.065 89.3502 823.056 95.4154 823.056 102.18H825.056H827.056C827.056 95.0246 826.007 88.4898 823.877 82.5997L821.996 83.28ZM825.056 102.18H823.056C823.056 104.22 822.504 105.397 821.731 106.1L823.076 107.58L824.422 109.06C826.288 107.363 827.056 104.94 827.056 102.18H825.056ZM823.076 107.58L821.81 106.032C821.021 106.677 819.485 107.2 816.776 107.2V109.2V111.2C819.827 111.2 822.491 110.643 824.343 109.128L823.076 107.58ZM816.776 109.2V107.2H761.696V109.2V111.2H816.776V109.2ZM761.696 109.2H763.696V94.08H761.696H759.696V109.2H761.696ZM761.696 94.08V96.08H801.656V94.08V92.08H761.696V94.08ZM801.656 94.08L800.395 92.5278L797.515 94.8678L798.776 96.42L800.037 97.9722L802.917 95.6322L801.656 94.08ZM798.776 96.42H800.776C800.776 91.8247 800.159 87.9243 798.81 84.8225L796.976 85.62L795.142 86.4174C796.194 88.8357 796.776 92.1353 796.776 96.42H798.776ZM796.976 85.62L798.81 84.8225C797.457 81.7107 795.39 79.2759 792.605 77.605L791.576 79.32L790.547 81.035C792.562 82.2441 794.095 84.0093 795.142 86.4174L796.976 85.62ZM791.576 79.32L792.644 77.629C789.964 75.9362 786.686 75.16 782.936 75.16V77.16V79.16C786.146 79.16 788.629 79.8238 790.508 81.011L791.576 79.32ZM782.936 77.16V75.16C778.88 75.16 775.249 76.1463 772.124 78.1848L773.216 79.86L774.309 81.5352C776.703 79.9737 779.553 79.16 782.936 79.16V77.16ZM773.216 79.86L772.143 78.1727C769.109 80.1032 766.829 82.9661 765.258 86.6322L767.096 87.42L768.935 88.2078C770.243 85.1539 772.044 82.9767 774.29 81.5473L773.216 79.86ZM767.096 87.42L765.258 86.6322C763.679 90.3163 762.936 94.8051 762.936 100.02H764.936H766.936C766.936 95.1549 767.633 91.2437 768.935 88.2078L767.096 87.42ZM764.936 100.02H762.936V101.64H764.936H766.936V100.02H764.936ZM764.936 101.64H762.936C762.936 110.376 764.831 117.144 769.102 121.414L770.516 120L771.93 118.586C768.761 115.416 766.936 109.944 766.936 101.64H764.936ZM770.516 120L769.148 121.459C773.509 125.547 779.979 127.4 788.156 127.4V125.4V123.4C780.494 123.4 775.204 121.653 771.884 118.541L770.516 120ZM788.156 125.4V127.4C790.942 127.4 794.064 127.084 797.508 126.469L797.156 124.5L796.805 122.531C793.529 123.116 790.65 123.4 788.156 123.4V125.4ZM797.156 124.5L797.561 126.459C801.141 125.718 804.546 124.728 807.774 123.487L807.056 121.62L806.338 119.753C803.326 120.912 800.131 121.842 796.751 122.541L797.156 124.5ZM807.056 121.62L807.774 123.487C810.612 122.395 812.787 122.338 814.465 122.957L815.156 121.08L815.848 119.203C812.966 118.142 809.741 118.445 806.338 119.753L807.056 121.62ZM815.156 121.08L814.554 122.987C816.408 123.573 817.747 124.607 818.68 126.1L820.376 125.04L822.072 123.98C820.605 121.633 818.465 120.027 815.759 119.173L815.156 121.08ZM820.376 125.04L818.763 126.223C819.834 127.683 820.437 129.399 820.539 131.44L822.536 131.34L824.534 131.24C824.396 128.481 823.558 125.997 821.989 123.857L820.376 125.04ZM822.536 131.34L820.539 131.445C820.638 133.321 820.201 135.245 819.146 137.249L820.916 138.18L822.686 139.111C824.032 136.555 824.675 133.919 824.533 131.235L822.536 131.34ZM820.916 138.18L819.168 137.209C818.225 138.906 816.626 140.322 814.179 141.386L814.976 143.22L815.774 145.054C818.847 143.718 821.208 141.774 822.665 139.151L820.916 138.18ZM814.976 143.22L814.145 141.401C810.093 143.253 805.742 144.647 801.084 145.579L801.476 147.54L801.868 149.501C806.811 148.513 811.459 147.027 815.808 145.039L814.976 143.22ZM801.476 147.54L801.074 145.581C796.527 146.514 791.922 146.98 787.256 146.98V148.98V150.98C792.191 150.98 797.065 150.486 801.878 149.499L801.476 147.54Z" fill="#292929" mask="url(#path-19-outside-1_42_42)"/>
<defs>
<linearGradient id="paint0_linear_42_42" x1="195" y1="87.5" x2="834" y2="87.5" gradientUnits="userSpaceOnUse">
<stop stop-color="#20847C"/>
<stop offset="1" stop-color="#0FC7B8"/>
</linearGradient>
<clipPath id="clip0_42_42">
<rect y="13.9" width="197.992" height="197.992" rx="90" fill="white"/>
</clipPath>
</defs>
</svg>
