<svg width="19" height="22" viewBox="0 0 19 22" fill="none" xmlns="http://www.w3.org/2000/svg">
<path d="M15.95 0.750122C17.05 0.750122 17.95 1.65012 17.95 2.75012V4.95012C17.95 5.75012 17.45 6.75012 16.95 7.25012L12.65 11.0501C12.05 11.5501 11.65 12.5501 11.65 13.3501V17.6501C11.65 18.2501 11.25 19.0501 10.75 19.3501L9.35001 20.2501C8.05001 21.0501 6.25 20.1501 6.25 18.5501V13.2501C6.25 12.5501 5.85 11.6501 5.45 11.1501L1.65 7.15012C1.15 6.65012 0.75 5.75012 0.75 5.15012V2.85012C0.75 1.65012 1.65 0.750122 2.75 0.750122H11.75" stroke="#20847C" stroke-width="1.5" stroke-miterlimit="10" stroke-linecap="round" stroke-linejoin="round"/>
<path d="M8.27961 0.750122L3.34961 8.65012" stroke="#20847C" stroke-width="1.5" stroke-miterlimit="10" stroke-linecap="round" stroke-linejoin="round"/>
</svg>
