<svg width="200" height="200" viewBox="0 0 200 200" fill="none" xmlns="http://www.w3.org/2000/svg">
<circle cx="120.207" cy="92.0265" r="68.1592" fill="#FFAB04" stroke="#292929" stroke-width="5"/>
<circle cx="50.5071" cy="50.5071" r="50.5071" transform="matrix(-1 0 0 1 170.714 41.4158)" fill="#FFE483"/>
<path d="M122.867 117.176V112.708C127.361 112.471 130.778 111.228 133.419 108.979C136.059 106.73 137.379 103.741 137.379 100.278C137.379 96.5494 136.311 93.7971 133.953 92.0511C131.564 90.0683 128.147 88.559 123.119 87.5824H122.867V76.1197C126.293 76.6228 129.206 77.5994 132.098 79.6117L136.331 74.1369C132.098 71.3846 127.604 69.9049 122.857 69.6682V66.6693H118.896V69.6583C114.936 69.8951 111.49 71.138 108.849 73.3871C106.209 75.6363 104.889 78.6253 104.889 82.0878C104.889 85.5503 105.956 88.3025 108.315 90.0486C110.422 91.7946 114.12 93.2743 118.867 94.2805V105.97C115.159 105.467 111.46 103.721 107.781 100.732L103.034 105.97C107.781 109.965 113.082 112.185 118.887 112.688V117.176H122.867ZM123.119 95.5136C125.759 96.2534 127.351 96.9933 128.4 97.7627C129.186 98.7689 129.72 99.7455 129.72 101.255C129.72 102.764 129.186 103.741 127.866 104.747C126.546 105.753 124.944 106.227 123.119 106.493V95.5136ZM113.887 84.8203C113.101 84.0804 112.567 82.8375 112.567 81.5945C112.567 80.1148 113.101 79.1086 114.14 78.1025C115.46 77.0963 116.78 76.6228 118.887 76.3564V87.0694C116.246 86.3 114.674 85.5601 113.887 84.8203Z" fill="#292929"/>
<path d="M178.452 146.256C176.22 146.812 172.089 148.313 169.375 149.343C167.325 150.122 166.186 151.405 164.685 152.389C162.917 153.548 159.823 155.053 157.614 156.323C156.614 156.898 155.596 157.307 155.219 157.962C154.015 160.057 161.116 158.53 161.771 158.204C162.802 156.939 163.927 156.003 164.674 155.302C165.051 154.972 165.422 154.693 165.804 154.407" stroke="#00B9AA" stroke-width="10" stroke-linecap="round"/>
<path d="M147.489 146.173C146.392 146.173 142.725 146.595 137.018 147.344C135.608 147.529 134.382 147.452 134.607 147.452C138.772 147.452 140.972 147.133 143.185 146.549C145.993 145.808 149.19 144.581 152.995 143.778C159.17 142.475 163.799 141.274 167.723 140.155C170.262 139.43 172.023 137.545 173.564 137.004C175.778 136.228 171.427 140.41 169.647 142.222C168.089 143.807 166.762 145.422 166.206 146.327C165.72 147.119 168.345 147.133 169.57 147.027C172.63 146.763 175.337 144.683 178.588 142.246C179.95 141.225 179.151 138.229 178.726 137.61C176.727 134.701 173.768 143.8 171.121 147.441C169.154 150.147 167.377 151.814 165.842 153.151C164.232 154.553 161.369 154.699 158.972 155.444C156.746 156.136 154.374 157.36 151.305 158.375C150.554 158.624 149.956 158.959 149.339 159.227C148.722 159.496 148.115 159.707 149.017 158.813C154.798 153.084 158.998 151.623 163.673 148.954C164.566 148.445 165.028 148.098 164.975 147.83C164.921 147.561 164.314 147.35 163.394 147.505C162.473 147.66 161.258 148.188 152.31 153.209C143.362 158.23 126.717 167.728 117.717 172.726C106.294 179.071 103.195 179.963 102.149 180.125C98.9023 180.626 110.901 176.139 118.216 172.482C123.731 169.725 133.307 165.764 138.796 163.38C145.501 160.468 147.238 159.608 147.732 159.287C148.21 158.975 139.584 163.091 127.934 168.099C122.02 170.641 118.787 171.431 114.452 172.918C102.278 177.094 95.3787 178.249 91.2295 179.642C90.1982 179.988 89.0795 180.178 88.4628 180.232C88.4035 180.237 89.061 179.97 95.9954 176.748C102.93 173.526 116.173 167.299 123.42 163.828C134.468 158.536 139.743 155.351 141.655 153.748C147.255 149.052 119.501 152.144 121.517 151.826C124.634 151.334 127.232 150.865 128.155 150.969C129.013 151.065 123.963 154.571 114.978 159.83C109.736 162.898 102.713 166.25 98.6591 168.203C91.9209 171.448 89.0831 172.288 87.9676 172.717C86.4275 173.308 91.7634 171.23 97.9743 168.53C103.166 166.274 112.69 162.56 118.118 160.286C126.913 156.602 130.17 154.392 131.84 152.681C132.083 152.432 131.179 152.147 130.441 152.038C128.87 151.807 120.322 153.513 108.239 155.964C100.657 157.502 95.2389 158.428 90.1342 159.442C88.9766 159.672 87.8682 159.605 87.6694 159.499C87.1204 159.208 97.4552 157.699 111.738 155.78C117.497 155.006 120.311 155.128 121.143 155.128C124.378 155.128 109.376 156.931 102.536 158.426C94.5468 160.172 92.5144 160.136 91.3529 160.456C90.6979 160.636 89.8268 160.564 90.4214 160.089C95.2474 156.235 103.743 154.405 109.675 152.361C114.173 150.811 115.944 149.694 116.559 149.003C117.124 148.369 112.914 147.772 108.248 147.719C106.861 147.704 107.469 147.561 108.329 147.507C111.89 147.282 115.554 146.71 121.147 145.909C122.699 145.687 123.919 145.534 124.841 145.322C125.141 145.254 124.67 144.689 124.178 144.472C123.687 144.254 123.08 144.254 122.645 143.991C120.729 142.827 120.252 140.321 118.901 138.399C117.129 135.879 113.146 135.415 109.708 134.715C103.003 133.349 99.1635 135.933 94.7952 136.896C90.3472 137.876 84.4443 138.811 78.2462 140.091C64.0642 143.018 60.9848 142.866 54.124 142.817C52.6201 142.806 52.0236 142.342 51.5285 141.968C49.6895 140.578 49.6821 138.082 49.1906 136.266C48.727 134.552 48.2095 133.279 47.4768 132.639C47.0889 132.301 46.2582 132.422 45.9434 132.686C44.5585 133.846 47.2228 135.824 47.2872 140.983C47.3179 143.444 45.7575 145.732 45.2016 148.084C44.955 149.127 45.0175 150.113 44.7726 151.017C44.5006 152.02 44.4026 159.534 44.4634 170.299C44.4872 174.523 45.0138 175.377 45.6249 176.07C46.8663 177.476 49.7926 176.343 63.9816 176.34C68.6137 176.339 71.2639 177.507 73.4803 178.683C75.3115 179.654 77.7731 179.535 80.1054 180.123C82.5534 180.741 84.7682 181.134 87.4061 181.404C89.9275 181.662 92.6175 181.882 106.262 181.833C111.364 181.814 112.999 180.82 113.492 180.448C116.906 177.87 100.621 180.494 98.8358 181.614C97.0748 182.717 94.9738 183.161 93.5545 183.748C91.6944 184.517 98.2652 182.95 102.674 181.254C108.983 178.826 114.435 176.682 118.273 174.906C120.238 173.996 122.196 172.403 124.287 171.175C126.132 170.092 128.212 169.627 131.032 168.564C134.673 167.191 137.416 166.429 139.507 166.268C141.71 166.098 133.631 166.212 131.726 167.01C129.77 167.829 128.477 170.043 127.424 171.222C125.944 172.878 132.505 170.056 134.656 169.309C137.599 168.288 138.646 165.476 139.814 163.769C141.002 162.034 142.695 160.046 144.048 157.694C145.195 155.7 146.009 153.433 147.178 151.616C147.461 151.175 147.85 150.766 148.098 150.812C150.012 151.169 148.35 154.584 147.553 157.037C147.146 158.291 146.999 159.493 146.815 160.556C146.723 161.089 146.753 161.62 147.421 161.417C152.222 159.957 153.49 155.991 155.642 153.856C157.902 151.614 159.999 149.806 162.085 148.682C163.853 147.729 166.736 146.819 169.509 145.909C171.617 145.217 174.107 144.683 176.504 143.991C178.499 143.414 180.127 143.295 180.804 143.242C180.896 143.235 180.388 143.084 180.077 142.713C178.229 140.509 177.929 137.334 175.968 135.413C175.162 134.623 174.733 133.602 174.672 132.694C174.576 131.252 171.316 137.622 168.911 140.091C166.906 142.148 163.342 146.467 160.872 149.045C159.453 150.525 156.958 153.823 155.102 156.506C153.539 158.766 152.525 160.449 151.237 162.21C149.866 164.083 148.358 165.886 145.965 167.168C144.381 168.017 143.321 168.985 142.281 169.039C141.725 169.068 141.12 168.777 140.685 168.457C140.251 168.137 140.008 167.715 139.822 167.286C139.636 166.858 139.514 166.436 140.126 165.041" stroke="#00B9AA" stroke-width="10" stroke-linecap="round"/>
<path d="M173.112 149.348C172.833 149.533 172.555 149.719 172.226 149.953C171.898 150.188 171.527 150.466 170.582 150.472" stroke="#00B9AA" stroke-width="10" stroke-linecap="round"/>
<path d="M139.104 172.394C136.133 173.507 129.188 176.138 123.806 178.288C121.567 179.182 120.093 179.977 118.592 180.823C117.015 181.712 115.034 182.04 112.228 183.304C109.679 184.451 108.007 185.227 106.507 185.882C105.005 186.538 103.511 187.099 101.684 187.663C95.7236 189.501 85.5229 187.858 84.022 187.012C82.5923 186.206 81.307 185.233 80.0394 184.016C78.7916 182.818 76.9057 182.141 75.3092 181.671C74.5701 181.453 68.3362 181.388 59.2974 181.342C54.6934 181.318 52.6391 180.922 50.5354 180.593C49.5665 180.441 47.9792 180.545 47.1669 180.823C46.3547 181.101 46.3547 181.658 46.4474 181.759C46.5402 181.86 46.7257 181.489 46.9604 181.113C47.1951 180.736 47.4733 180.365 47.76 179.983" stroke="#00B9AA" stroke-width="10" stroke-linecap="round"/>
<path d="M66.5908 184.199C68.5414 184.199 72.6729 184.384 75.1532 184.526C77.1957 184.643 79.4127 185.598 81.3857 186.118C83.7487 186.741 86.0625 186.447 87.9456 186.773C89.6617 187.07 91.2227 188.409 91.931 189.814C93.3438 192.617 100.498 190.388 102.232 189.821C103.746 189.327 105.09 188.701 106.495 188.089C107.903 187.293 109.21 186.543 110.991 186.214C111.462 186.166 111.925 186.166 112.684 185.604" stroke="#00B9AA" stroke-width="10" stroke-linecap="round"/>
<path d="M191.435 141.465C188.127 142.496 182.858 144.579 181.219 145.17C180.909 145.282 180.563 145.344 180.626 145.242C182.003 143.031 188.77 142.305 191.326 141.433C191.722 141.298 192.187 141.053 192.263 141.085C193.418 141.559 190.054 142.708 189.048 143.541C187.64 144.706 185.76 145.34 184.579 145.898C183.99 146.176 183.195 147.003 182.432 147.697C180.854 149.133 189.672 141.831 192.192 140.014C192.789 139.584 193.164 139.041 193.443 138.936C194.392 138.579 191.372 140.488 190.019 141.634C189.705 141.879 189.431 142.085 189.187 142.293C188.942 142.502 188.736 142.708 188.732 142.504" stroke="#00B9AA" stroke-width="2" stroke-linecap="round"/>
<path d="M86.9816 163.176C85.6775 162.338 83.429 160.837 81.0429 160.227C79.5232 159.839 78.4599 159.148 77.9906 158.776C77.7584 158.591 78.0777 158.032 78.3588 157.747C79.7391 156.346 83.4965 155.593 86.1764 154.513C89.3114 153.251 92.6871 151.562 95.1196 150.439C100.528 147.943 106.071 147.071 109.27 146.034C110.231 145.722 110.869 145.191 111.058 144.723C112.048 142.282 103.581 144.716 101.602 145.42C100.864 145.682 99.9159 145.843 98.98 145.798C98.5768 145.778 98.415 145.289 98.3658 144.866C98.3167 144.443 98.4094 143.979 98.6427 143.601C99.6077 142.038 102.889 142.096 105.01 141.491C107.098 140.894 108.707 139.196 110.304 138.212C111.034 137.762 111.434 136.394 111.619 134.66C111.679 134.103 112.176 134.317 112.506 134.551C113.805 135.474 114.986 136.751 116.954 137.83C118.7 138.788 120.793 139.657 122.065 139.942C123.259 140.21 120.152 137.701 118.934 136.153C118.178 135.194 117.246 134.696 116.498 134.602C114.939 134.406 112.018 136.745 108.773 137.878C106.672 138.611 104.143 140.123 101.189 141.434C98.2448 142.741 95.6073 143.592 93.3251 144.525C89.2279 146.2 83.9153 146.871 79.0544 147.293C71.9294 147.911 69.8483 146.784 66.3379 145.475C63.4615 144.401 62.2542 143.226 60.662 141.495C58.9862 139.673 58.9714 137.79 58.8295 137.089C58.5535 135.726 61.3042 135.728 64.9045 135.678C66.0902 135.662 66.8354 136.099 67.1193 136.519C68.3968 138.41 61.0569 138.443 58.4149 137.79C55.6815 137.116 54.4801 135.075 53.0256 133.95C52.682 133.684 52.4171 133.389 52.4129 133.107C52.4087 132.824 52.6869 132.546 53.0158 132.356C54.3388 131.593 57.0771 131.697 59.0585 132.349C60.5913 132.854 61.3042 134.783 62.5718 135.909C63.9048 137.093 65.52 137.504 69.587 137.646C70.8669 137.69 72.0771 137.88 72.368 137.88C77.2382 137.88 65.818 137.228 63.4754 136.665C61.3899 136.163 59.6347 135.446 57.479 134.745C55.1054 133.973 53.1704 132.731 50.4076 132.355C49.7706 132.268 49.4211 131.798 49.2763 132.488C48.7727 134.889 49.5981 137.776 50.8081 140.945C52.9303 146.504 55.312 150.705 55.9205 152.436C57.0301 155.594 55.9753 161.562 54.8989 164.851C53.9496 167.751 52.7937 170.466 51.5726 171.748C48.7751 174.684 48.7578 158.443 49.9691 155.355C51.1827 152.262 56.0596 160.168 57.6504 161.717C60.1463 164.147 62.0518 166.16 63.1816 167.994C64.3156 169.835 66.2677 171.501 68.0973 173.008C68.4908 173.333 68.8927 173.569 69.2694 173.666C69.646 173.763 70.017 173.67 70.4863 173.344C73.6329 171.159 74.705 165.441 75.0367 159.872C75.1794 157.475 74.4296 156.059 73.963 155.265C72.669 153.063 69.8483 151.843 67.5999 151.186C63.4564 149.974 61.0456 151.928 59.2089 153.053C58.5034 153.486 58.221 154.272 58.1732 155.019C58.0676 156.672 59.9944 158.386 62.3329 161.478C63.9797 163.655 66.7286 165.975 69.3129 166.782C69.8982 166.964 70.5735 166.829 70.5833 166.69C70.7486 164.352 63.8674 167.099 61.1777 168.745C59.4239 169.818 59.1569 172.161 59.2033 173.24C59.2613 174.591 60.6521 169.741 63.0355 162.875C63.948 160.246 64.5869 158.78 65.1968 157.372C65.3429 157.035 65.8011 156.902 66.2241 156.9C68.0475 156.887 70.0113 158.021 72.6378 158.863C75.0052 159.622 76.9479 159.707 79.1499 160.922C81.5119 162.224 84.9861 164.008 87.6309 165.327C89.6246 166.322 92.9569 166.267 94.5702 166.919C97.4803 168.096 88.1171 169.072 83.3925 170.618C81.1541 171.35 79.4942 171.793 78.1381 172.167C74.5886 173.145 91.858 172.824 90.8307 173.011C89.6234 173.231 87.5578 173.294 85.6353 173.155C85.0877 173.115 85.4751 172.737 85.9445 172.594C86.4139 172.451 86.9704 172.451 87.4426 172.59C89.4124 173.17 90.4442 176.183 91.3816 178.766C91.7004 179.644 91.7596 180.688 91.5277 181.672C91.4344 182.068 90.8321 182.007 87.4397 180.615C84.0474 179.224 77.7404 176.442 72.4973 173.895C67.2542 171.349 63.266 169.123 58.9391 166.028C54.6122 162.934 50.0675 159.038 47.5872 156.8C43.9784 153.543 42.8612 152.22 41.0849 149.558C37.8123 144.655 36.3968 141.922 35.7841 140.135C35.2588 138.602 34.9859 129.348 34.5671 124.065C34.5192 123.46 33.3024 124.387 32.8808 124.577C32.7272 124.646 32.7375 124.024 32.923 123.646C33.1085 123.268 33.4795 122.99 33.6706 122.568C33.8617 122.147 33.8617 121.59 33.6762 121.443C32.2737 122.324 30.5902 123.451 28.2532 124.013C27.2259 124.109 25.6492 124.109 24.5868 124.109" stroke="#00B9AA" stroke-width="10" stroke-linecap="round"/>
<path d="M34.7048 120.736C33.96 120.736 27.639 119.623 23.2826 118.77C22.8101 118.677 22.4394 118.583 22.7584 118.535C23.0774 118.487 24.0977 118.487 24.3914 118.719C28.9254 122.299 8.84466 120.171 9.45174 120.917C11.0273 122.854 10.7193 125.036 10.9076 127.799C11.034 129.654 11.9391 131.59 11.7072 133.558C11.6244 134.261 11.0116 134.227 10.6336 134.088C10.2556 133.948 9.97732 133.67 9.78761 133.341C9.41048 132.688 9.40958 130.59 9.54871 128.199C9.59137 127.466 9.96608 127.757 10.3413 128.132C12.2749 130.066 12.9678 133.462 13.9023 136.651C14.6876 139.33 15.5872 141.523 16.4796 143.448C17.273 145.16 18.3079 146.678 18.1252 149.022C18.0884 149.493 17.2904 149.404 16.7719 149.311C14.953 148.986 14.1932 147.161 13.6269 145.522C13.0768 143.931 12.8778 142.197 11.9433 140.604C11.3519 139.595 10.9104 138.634 10.8149 138.118C10.5565 136.723 14.6429 140.208 16.384 142.65C18.0305 144.96 20.0785 148.819 21.4445 151.085C22.3223 152.54 22.9903 154.266 23.7871 156.096C24.165 156.964 24.8649 157.552 25.101 158.02C25.1886 158.193 24.6879 158.302 24.3113 158.303C22.8283 158.309 21.5962 156.902 20.9344 155.593C20.5868 154.905 20.3736 154.185 20.1376 153.809C19.4991 152.795 22.7992 155.761 24.3 157.502C25.4921 158.885 26.5485 160.264 27.3945 161.998C28.1676 163.583 28.9881 164.671 29.0836 165.279C29.123 165.53 28.6227 165.61 28.2461 165.611C26.6748 165.617 25.4355 164.024 24.4012 162.992C24.2669 162.857 24.7666 162.709 25.1432 162.754C26.7875 162.95 28.6958 164.575 30.4833 165.888C31.9357 166.954 32.8273 168.696 33.8574 170.196C34.3862 170.967 34.983 171.605 35.2191 172.165C35.3299 172.428 34.806 172.726 34.4757 172.684C33.7461 172.591 33.1168 171.425 32.646 170.954C31.386 169.694 35.1657 173.569 36.6666 174.462C37.048 174.688 37.4142 174.974 37.3734 175.025C36.4184 176.21 34.5249 173.018 33.3037 171.613C32.9949 171.258 32.743 170.865 32.7852 170.628C32.8273 170.39 33.1983 170.298 33.5749 170.389C35.2472 170.795 36.571 172.349 37.7922 173.617C39.0291 174.901 39.4799 176.101 39.8088 176.338C41.125 177.283 38.5496 170.511 38.3122 166.793C38.1827 164.765 37.7065 161.973 37.1893 159.39C36.7934 157.412 35.7419 154.48 34.1089 149.029C31.2704 139.553 30.2107 132.827 29.9746 132.123C29.5511 130.86 31.9841 134.592 34.6008 139.547C36.2689 142.706 37.8864 145.368 40.6885 149.852C43.1638 153.813 43.2264 155.767 43.9305 158.481C44.2193 159.594 44.2607 160.548 44.0289 161.297C43.9202 161.648 43.3333 161.675 42.7234 161.444C41.2601 160.891 36.7115 155.261 30.6238 147.768C26.4254 142.6 24.1201 137.982 23.2784 135.968C22.4708 134.036 21.7817 131.708 21.2154 129.783C20.9848 128.999 20.6547 128.327 20.0476 127.859C19.7469 127.628 19.3478 127.577 19.2494 127.807C18.51 129.54 21.4894 130.848 23.7787 135.327C27.5716 142.748 28.7014 146.576 30.1559 149.255C31.0948 150.984 31.9841 152.58 32.6418 154.223C32.7374 154.646 32.7374 155.109 32.6446 155.534C32.5519 155.958 32.3664 156.329 31.8942 156.711" stroke="#00B9AA" stroke-width="10" stroke-linecap="round"/>
<path d="M90.7619 145.413C90.5764 145.413 90.3909 145.413 84.2202 145.784C78.0496 146.155 65.8995 146.897 54.2244 147.661" stroke="#00B9AA" stroke-width="10" stroke-linecap="round"/>
<path d="M164.827 134.19C164.137 134.258 161.797 135.358 159.706 136.611C158.531 137.316 157.556 138.135 156.483 138.795C154.6 139.952 151.877 140.771 149.972 141.359C149.526 141.497 149.175 141.465 149.307 141.328C150.722 139.857 153.586 139.116 157.815 136.762C159.522 135.812 160.94 134.68 162.087 133.777C162.339 133.578 162.537 133.362 162.574 133.119C162.612 132.876 162.474 132.602 162.232 132.426C161.164 131.651 159.431 132.248 157.492 132.767C155.854 133.205 153.684 133.701 149.79 135.147C142.684 137.785 138.017 140.284 137.221 140.872C135.76 141.951 134.969 143.124 134.066 144.474C133.856 144.788 133.651 144.995 133.717 145.066C133.992 145.368 134.753 144.862 135.066 144.551C135.192 144.426 134.899 144.172 134.998 143.963C135.837 142.207 140.349 141.889 141.858 141.12C144.237 139.907 135.876 142.226 134.069 142.469C133.654 142.525 133.24 142.504 133.165 142.367C132.627 141.38 135.165 141.12 137.857 140.533C141.924 139.645 145.968 139.183 148.251 138.525C149.816 138.074 153.914 137.247 159.42 135.759C163.931 134.54 166.761 133.429 168.769 132.462C170.997 131.39 171.82 129.28 172.311 128.026C172.696 127.042 170.17 127.193 165.332 127.191C163.298 127.19 162.408 128.299 161.125 128.921C159.989 129.473 158.941 129.477 158.696 129.478C157.431 129.484 161.905 128.648 165.609 127.922C169.173 127.224 170.781 126.432 171.959 126.015C172.745 125.737 173.485 125.459 173.971 125.322C174.161 125.268 174.044 124.91 174.249 124.769C174.825 124.372 175.703 124.696 176.29 124.972C177.826 125.692 178.543 127.047 179.375 127.985C180.251 128.971 180.966 130.028 182.042 130.688C183.182 131.387 184.5 132.315 185.644 133.216C187.356 134.564 188.591 135.921 189.041 136.162C189.258 136.279 189.285 136.609 189.183 136.819C188.182 137.445 186.25 138.409 184.96 139.349C184.716 139.524 184.442 139.661 183.951 139.802" stroke="#00B9AA" stroke-width="10" stroke-linecap="round"/>
<g clip-path="url(#clip0_42_121)">
<path d="M95.5763 198.677C89.1287 198.677 82.7469 196.304 76.5518 194.003C69.7221 191.465 62.6708 188.844 55.6502 189.463L38.5487 190.98V124.381L47.8173 123.558C53.6349 123.051 58.5019 125.31 63.2087 127.503C67.6542 129.573 71.8604 131.551 76.6923 131.134L107.567 125.531C118.599 123.657 124.671 130.063 128.352 135.895L162.138 120.19C174.803 114.504 189.015 120.212 197.551 134.381C199.77 138.064 198.534 142.956 194.8 145.287C190.425 148.016 186.065 150.747 181.753 153.451C144.141 177.016 111.661 197.366 97.7826 198.58C97.0472 198.646 96.3118 198.677 95.5763 198.677ZM57.8126 184.978C64.8683 184.978 71.5728 187.47 78.0797 189.887C84.8193 192.394 91.1857 194.756 97.3963 194.207C110.223 193.086 143.836 172.026 179.42 149.728C183.736 147.026 188.096 144.29 192.473 141.559C194.185 140.492 194.776 138.286 193.788 136.644C186.454 124.473 174.463 119.459 163.963 124.183L126.583 141.559L125.582 139.812C122.245 133.999 117.593 128.273 108.329 129.856L77.263 135.483C71.0613 135.994 66.124 133.7 61.3558 131.481C56.9827 129.441 52.8402 127.512 48.2081 127.931L42.9415 128.398V186.181L55.2638 185.088C56.1178 185.013 56.9674 184.978 57.8126 184.978Z" fill="#292929"/>
<path d="M86.9158 166.268C85.8906 166.268 84.973 165.548 84.7666 164.503C84.5295 163.313 85.3001 162.158 86.4899 161.919C98.7178 159.475 112.467 153.882 128.469 144.841L125.584 139.812C124.98 138.76 125.345 137.417 126.394 136.815C127.446 136.216 128.789 136.578 129.391 137.625L133.371 144.565C133.972 145.616 133.61 146.958 132.563 147.559C115.323 157.484 100.536 163.589 87.3483 166.224C87.2034 166.254 87.0585 166.268 86.9158 166.268Z" fill="#292929"/>
<path d="M35.2141 198.677H8.84396C4.58285 198.677 1.11646 195.211 1.11646 190.95L1.11646 120.067C1.11646 115.808 4.58285 112.34 8.84396 112.34H35.2141C39.4752 112.34 42.9416 115.806 42.9416 120.067V190.95C42.9394 195.211 39.473 198.677 35.2141 198.677ZM8.84396 116.733C7.00428 116.733 5.50708 118.23 5.50708 120.069L5.50708 190.95C5.50708 192.789 7.00428 194.286 8.84396 194.286H35.2141C37.0537 194.286 38.5509 192.789 38.5509 190.95V120.067C38.5509 118.228 37.0537 116.73 35.2141 116.73L8.84396 116.733Z" fill="#292929"/>
<path d="M3.37903 125.103L4.1987 129.05L4.8521 131.891L5.82639 135.362L7.12155 139.464L8.25045 142.46L9.37935 145.456L11.3046 149.236L13.2299 153.017L15.9515 157.582L21.7041 165.762L27.9204 172.515L34.7669 178.948C34.7669 178.948 39.4179 182.383 42.3981 184.584L45.4173 186.617L47.1647 187.711L48.912 188.805" stroke="#292929" stroke-width="3.5"/>
</g>
<defs>
<clipPath id="clip0_42_121">
<rect width="200" height="200" rx="90" fill="white"/>
</clipPath>
</defs>
</svg>
