<svg width="817" height="817" viewBox="0 0 817 817" fill="none" xmlns="http://www.w3.org/2000/svg">
<path d="M408.4 0C182.9 0 0 182.8 0 408.4C0 633.9 182.8 816.8 408.4 816.8C633.9 816.8 816.8 634 816.8 408.4C816.8 182.9 634 0 408.4 0ZM593.6 547.7C604.2 558.3 604.2 575.5 593.6 586.1L586.1 593.6C575.5 604.2 558.3 604.2 547.7 593.6L408.4 454.3L269.2 593.6C258.6 604.2 241.4 604.2 230.8 593.6L223.3 586.1C212.7 575.5 212.7 558.3 223.3 547.7L362.5 408.4L223.3 269.2C212.7 258.6 212.7 241.4 223.3 230.8L230.8 223.3C241.4 212.7 258.6 212.7 269.2 223.3L408.5 362.6L547.7 223.2C558.3 212.6 575.5 212.6 586.1 223.2L593.6 230.7C604.2 241.3 604.2 258.5 593.6 269.1L454.4 408.4L593.6 547.7Z" fill="#F16A5D"/>
</svg>
