<svg width="700" height="700" viewBox="0 0 700 700" fill="none" xmlns="http://www.w3.org/2000/svg">
<path d="M350 0C442.826 0 531.85 36.8749 597.487 102.513C663.125 168.15 700 257.174 700 350C700 442.826 663.125 531.85 597.487 597.487C531.85 663.125 442.826 700 350 700C257.174 700 168.15 663.125 102.513 597.487C36.8749 531.85 0 442.826 0 350C0 257.174 36.8749 168.15 102.513 102.513C168.15 36.8749 257.174 0 350 0ZM306.4 419.05L228.65 341.25C225.863 338.463 222.554 336.252 218.912 334.743C215.27 333.235 211.367 332.458 207.425 332.458C203.483 332.458 199.58 333.235 195.938 334.743C192.296 336.252 188.987 338.463 186.2 341.25C180.571 346.879 177.408 354.514 177.408 362.475C177.408 370.436 180.571 378.071 186.2 383.7L285.2 482.7C287.979 485.501 291.286 487.725 294.929 489.242C298.572 490.759 302.479 491.54 306.425 491.54C310.371 491.54 314.278 490.759 317.921 489.242C321.564 487.725 324.871 485.501 327.65 482.7L532.65 277.65C535.475 274.874 537.722 271.567 539.261 267.918C540.801 264.27 541.604 260.352 541.622 256.392C541.64 252.432 540.875 248.508 539.369 244.845C537.863 241.182 535.647 237.854 532.848 235.052C530.05 232.25 526.724 230.03 523.063 228.52C519.402 227.01 515.478 226.239 511.518 226.253C507.558 226.267 503.64 227.064 499.99 228.6C496.339 230.136 493.029 232.379 490.25 235.2L306.4 419.05Z" fill="#00B9AA"/>
</svg>
