<svg width="255" height="255" viewBox="0 0 255 255" fill="none" xmlns="http://www.w3.org/2000/svg">
<circle cx="28" cy="170" r="20" transform="rotate(-90 28 170)" fill="#7EF2D1"/>
<path d="M228.149 120.043C301.875 95.4076 208.939 -51.3318 127.944 18.8245C94.7157 65.417 42.796 -38.4787 1.2603 50.9572C-14.3155 150.033 120.675 101.298 65.5955 194.483C54.2184 242.147 107.455 255 127.944 255C323.162 221.796 160.134 142.769 228.149 120.043Z" fill="#C4FFF4"/>
<path d="M178 113C221.368 98.5088 195.644 -3.2684 148 38C128.454 65.4074 69.4328 6.39066 45 59C45 135 124.4 129.185 92 184C85.3076 212.037 150.326 220 162.378 220C277.212 200.468 137.991 126.369 178 113Z" fill="#7EF2D1"/>
</svg>
