<svg width="255" height="255" viewBox="0 0 255 255" fill="none" xmlns="http://www.w3.org/2000/svg">
<circle cx="170" cy="227" r="20" transform="rotate(-180 170 227)" fill="#FDA4FF"/>
<path d="M120.043 26.8509C95.4076 -46.8749 -51.3318 46.0612 18.8245 127.056C65.417 160.284 -38.4787 212.204 50.9572 253.74C150.033 269.315 101.298 134.325 194.483 189.404C242.147 200.782 255 147.545 255 127.056C221.796 -68.162 142.769 94.8656 120.043 26.8509Z" fill="#FBD4FF"/>
<path d="M113 77C98.5088 33.6319 -3.2684 59.3561 38 107C65.4074 126.546 6.39066 185.567 59 210C135 210 129.185 130.6 184 163C212.037 169.692 220 104.674 220 92.6215C200.468 -22.2125 126.369 117.009 113 77Z" fill="#FDA4FF"/>
</svg>
