<svg width="255" height="255" viewBox="0 0 255 255" fill="none" xmlns="http://www.w3.org/2000/svg">
<circle cx="85" cy="28" r="20" fill="#82F4FF"/>
<path d="M134.957 228.149C159.592 301.875 306.332 208.939 236.176 127.944C189.583 94.7157 293.479 42.796 204.043 1.2603C104.967 -14.3155 153.702 120.675 60.5167 65.5955C12.853 54.2184 0 107.455 0 127.944C33.2038 323.162 112.231 160.134 134.957 228.149Z" fill="#C4FAFF"/>
<path d="M142 178C156.491 221.368 258.268 195.644 217 148C189.593 128.454 248.609 69.4328 196 45C120 45 125.815 124.4 71 92C42.9625 85.3076 35 150.326 35 162.378C54.5316 277.212 128.631 137.991 142 178Z" fill="#82F4FF"/>
</svg>
