<svg width="255" height="255" viewBox="0 0 255 255" fill="none" xmlns="http://www.w3.org/2000/svg">
<circle cx="20" cy="20" r="20" transform="matrix(-1 0 0 1 190 8)" fill="#FF9B9B"/>
<path d="M120.043 228.149C95.4076 301.875 -51.3318 208.939 18.8245 127.944C65.417 94.7157 -38.4787 42.796 50.9572 1.2603C150.033 -14.3155 101.298 120.675 194.483 65.5955C242.147 54.2184 255 107.455 255 127.944C221.796 323.162 142.769 160.134 120.043 228.149Z" fill="#FFD9D9"/>
<path d="M113 178C98.5088 221.368 -3.2684 195.644 38 148C65.4074 128.454 6.39066 69.4328 59 45C135 45 129.185 124.4 184 92C212.037 85.3076 220 150.326 220 162.378C200.468 277.212 126.369 137.991 113 178Z" fill="#FF9B9B"/>
</svg>
