<svg width="255" height="255" viewBox="0 0 255 255" fill="none" xmlns="http://www.w3.org/2000/svg">
<circle cx="227" cy="85" r="20" transform="rotate(90 227 85)" fill="#F2F27E"/>
<path d="M26.8509 134.957C-46.8749 159.592 46.0612 306.332 127.056 236.176C160.284 189.583 212.204 293.479 253.74 204.043C269.315 104.967 134.325 153.702 189.404 60.5167C200.782 12.853 147.545 0 127.056 0C-68.162 33.2038 94.8656 112.231 26.8509 134.957Z" fill="#F6FFC4"/>
<path d="M77 142C33.6319 156.491 59.3561 258.268 107 217C126.546 189.593 185.567 248.609 210 196C210 120 130.6 125.815 163 71C169.692 42.9625 104.674 35 92.6215 35C-22.2125 54.5316 117.009 128.631 77 142Z" fill="#F2F27E"/>
</svg>
