<svg width="255" height="255" viewBox="0 0 255 255" fill="none" xmlns="http://www.w3.org/2000/svg">
<circle cx="20" cy="20" r="20" transform="matrix(0 1 1 0 8 65)" fill="#F2AC7E"/>
<path d="M228.149 134.957C301.875 159.592 208.939 306.332 127.944 236.176C94.7157 189.583 42.796 293.479 1.2603 204.043C-14.3155 104.967 120.675 153.702 65.5955 60.5167C54.2184 12.853 107.455 0 127.944 0C323.162 33.2038 160.134 112.231 228.149 134.957Z" fill="#FFE5C4"/>
<path d="M178 142C221.368 156.491 195.644 258.268 148 217C128.454 189.593 69.4328 248.609 45 196C45 120 124.4 125.815 92 71C85.3076 42.9625 150.326 35 162.378 35C277.212 54.5316 137.991 128.631 178 142Z" fill="#F2AC7E"/>
</svg>
